<?xml version="1.0" encoding="UTF-8"?>
<svg width="478px" height="83px" viewBox="0 0 478 83" version="1.1" xmlns="http://www.w3.org/2000/svg" xmlns:xlink="http://www.w3.org/1999/xlink">
    <title>Group 56</title>
    <defs>
        <polygon id="path-1" points="0 0.20186711 25.1417263 0.20186711 25.1417263 39.8526036 0 39.8526036"></polygon>
        <polygon id="path-3" points="0.596494051 0.0892382357 34.1031584 0.0892382357 34.1031584 43.2675714 0.596494051 43.2675714"></polygon>
        <polygon id="path-5" points="0.62342277 0.173038312 9.70449433 0.173038312 9.70449433 15.0695993 0.62342277 15.0695993"></polygon>
        <polygon id="path-7" points="0 81.1556889 476.363137 81.1556889 476.363137 0.655199968 0 0.655199968"></polygon>
    </defs>
    <g id="Page-1" stroke="none" stroke-width="1" fill="none" fill-rule="evenodd">
        <g id="Desktop-HD-Copy" transform="translate(-499.000000, -63.000000)">
            <g id="Group-56" transform="translate(499.000000, 63.000000)">
                <g id="Group-3" transform="translate(0.000000, 1.876493)">
                    <mask id="mask-2" fill="white">
                        <use xlink:href="#path-1"></use>
                    </mask>
                    <g id="Clip-2"></g>
                    <path d="M6.08720083,38.9418756 L9.21578068,38.9418756 C12.2106997,38.9418756 14.5143828,38.0612869 16.1274851,36.2968334 C17.7373115,34.5330351 18.5445178,32.2286968 18.5445178,29.3851289 C18.5445178,26.8056066 17.7464843,24.5399251 16.1543483,22.5861188 C14.5622124,20.6349333 12.2670469,19.4103646 9.27212787,18.9176542 L9.32847507,18.0639287 C11.5666382,17.7998831 13.3192981,16.9075007 14.5910412,15.3894024 C15.8608188,13.8745801 16.4950523,12.0151225 16.4950523,9.81496105 C16.4950523,7.38941076 15.7651596,5.34911806 14.3066844,3.70063494 C12.8449333,2.05215182 10.5975974,1.22528946 7.56402156,1.22528946 L6.08720083,1.22528946 L6.08720083,38.9418756 Z M11.1492758,39.8526036 L-0.000262079987,39.8526036 L-0.000262079987,0.20186711 L9.32847507,0.20186711 C13.8414925,0.20186711 17.1889091,1.10342227 19.3687594,2.90325658 C21.5512305,4.70636689 22.6395176,6.95370279 22.6395176,9.64591946 C22.6395176,11.9974321 21.6724425,13.9872744 19.7389474,15.617412 C17.8061075,17.2488599 15.22593,18.179899 12.0030013,18.4052878 L12.0030013,18.6332974 C15.8306796,18.6332974 18.9802258,19.647547 21.4437777,21.6753909 C23.9112608,23.707166 25.1417263,26.1235435 25.1417263,28.9284545 C25.1417263,32.2286968 23.8902944,34.873739 21.3880857,36.8662021 C18.8852218,38.8560445 15.4722852,39.8526036 11.1492758,39.8526036 L11.1492758,39.8526036 Z" id="Fill-1" fill="#FEFEFE" mask="url(#mask-2)"></path>
                </g>
                <polygon id="Fill-4" fill="#FEFEFE" points="54.7249222 41.7288998 32.824208 41.7288998 32.824208 2.07816326 53.8711966 2.07816326 53.8711966 4.46833275 38.7957005 3.10158561 38.7957005 19.030152 53.017471 19.030152 53.017471 20.0561952 38.7957005 20.0561952 38.7957005 40.8181718 55.6919973 39.2823831"></polygon>
                <polygon id="Fill-6" fill="#FEFEFE" points="57.2843298 2.07842534 63.4844871 2.07842534 74.6923378 24.4921611 84.4744733 2.07842534 87.3213172 2.07842534 74.9773498 25.6872458 74.9773498 41.7291618 69.286938 41.7291618 69.286938 25.743593"></polygon>
                <path d="M110.814298,41.2157471 C115.327316,41.2157471 118.728459,39.47226 121.023624,35.9820098 C123.318134,32.4950356 124.466045,27.7926654 124.466045,21.8735889 C124.466045,15.9224076 123.291926,11.2082438 120.940414,7.73895995 C118.588901,4.26967611 115.19431,2.5347066 110.757951,2.5347066 C106.319626,2.5347066 102.897517,4.32602331 100.489657,7.91062234 C98.0791765,11.4926006 96.8755741,16.1301059 96.8755741,21.8178969 C96.8755741,27.9997086 98.0228293,32.7800475 100.31734,36.1543274 C102.612505,39.5286072 106.111273,41.2157471 110.814298,41.2157471 M110.757951,1.68098104 C116.785791,1.68098104 121.657858,3.62364895 125.376773,7.51095036 C129.091757,11.3982518 130.950559,16.2074195 130.950559,21.9332121 C130.950559,27.6203478 129.064893,32.4092044 125.290286,36.2965058 C121.5183,40.1838072 116.673096,42.1264751 110.757951,42.1264751 C104.421512,42.1264751 99.437406,40.2132912 95.7958046,36.382337 C92.1548584,32.5513828 90.3340577,27.7330422 90.3340577,21.9332121 C90.3340577,16.2074195 92.2668976,11.3982518 96.1371638,7.51095036 C100.00612,3.62364895 104.877531,1.68098104 110.757951,1.68098104" id="Fill-8" fill="#FEFEFE"></path>
                <polygon id="Fill-10" fill="#FEFEFE" points="169.578135 34.9589806 169.181084 2.07842534 171.570598 2.07842534 170.203196 43.8336641 169.919494 43.8336641 140.166209 9.075961 140.394873 41.7291618 138.063672 41.7291618 139.600116 0.655331008 139.941475 0.655331008"></polygon>
                <path d="M189.598884,3.10152009 L186.242295,3.10152009 L186.242295,40.7617591 L190.168253,40.7617591 C194.68127,40.7617591 198.404772,39.1014824 201.347275,35.7835497 C204.285191,32.4656171 205.756115,27.6977269 205.756115,21.4766032 C205.756115,18.7096937 205.441619,16.2428659 204.816558,14.0813612 C204.190842,11.9198565 203.365946,10.1671966 202.339903,8.81813982 C201.317135,7.47497988 200.083394,6.35393273 198.642609,5.46417118 C197.201824,4.57244402 195.742694,3.95524565 194.262597,3.61454167 C192.783156,3.27318248 191.229677,3.10152009 189.598884,3.10152009 L189.598884,3.10152009 Z M180.270802,41.7288342 L180.270802,2.13444494 L190.565959,2.13444494 C197.278483,2.13444494 202.568567,3.89889845 206.438178,7.42452948 C210.305169,10.9527813 212.241285,15.5608027 212.241285,21.2479384 C212.241285,27.1283581 210.248166,32.0122187 206.265861,35.8988649 C202.283555,39.7861663 197.070784,41.7288342 190.622306,41.7288342 L180.270802,41.7288342 Z" id="Fill-12" fill="#FEFEFE"></path>
                <polygon id="Fill-14" fill="#FEFEFE" points="230.784951 2.07842534 236.985108 2.07842534 248.192959 24.4921611 257.975749 2.07842534 260.821938 2.07842534 248.477971 25.6872458 248.477971 41.7291618 242.787559 41.7291618 242.787559 25.743593"></polygon>
                <path d="M265.201557,2.07842534 L271.116702,2.07842534 L271.116702,30.6359712 C271.116702,37.6905092 273.791883,41.2154851 279.138315,41.2154851 C280.502441,41.2154851 281.696871,40.9900963 282.722914,40.5334219 C283.746337,40.0800235 284.531921,39.5198275 285.0836,38.8554548 C285.632002,38.194358 286.06771,37.3583228 286.390724,36.3532461 C286.713737,35.3475141 286.921436,34.4105782 287.01644,33.5358862 C287.110788,32.6644703 287.159273,31.6973951 287.159273,30.6359712 L287.159273,2.07842534 L293.189734,2.07842534 L293.189734,27.2230345 C293.189734,37.1591421 288.487363,42.126213 279.081968,42.126213 C276.312438,42.126213 273.960925,41.6728146 272.02743,40.7620867 C270.09459,39.8513587 268.661668,38.6182724 267.730628,37.0641381 C266.802865,35.5106589 266.147665,33.9453862 265.767649,32.3702855 C265.388289,30.7964952 265.201557,29.0818368 265.201557,27.2230345 L265.201557,2.07842534 Z" id="Fill-16" fill="#FEFEFE"></path>
                <path d="M334.660419,27.1075228 L335.571147,27.1075228 C335.571147,31.9999009 334.082533,35.7273336 331.105304,38.2865446 C328.128075,40.8477213 324.344951,42.1260165 319.757896,42.1260165 C313.614086,42.1260165 308.825229,40.4388765 305.391326,37.0645967 C301.960699,33.6903169 300.244075,28.8922875 300.244075,22.6711638 C300.244075,16.0352985 302.025564,10.876254 305.593128,7.19927173 C309.157416,3.51966871 313.670433,1.6811776 319.13218,1.6811776 C321.937091,1.6811776 324.401298,2.06053838 326.527422,2.81663914 C328.65027,3.57601591 330.290235,4.58109266 331.446663,5.8325246 C332.602436,7.08330134 333.456817,8.39435648 334.005219,9.75848281 C334.556898,11.1226091 334.832737,12.5096675 334.832737,13.9124506 C334.832737,14.555857 334.81177,15.0125314 334.773769,15.2765769 L329.029631,15.2765769 C329.029631,10.6888668 328.167387,7.42466052 326.440935,5.49116542 C324.715139,3.55832551 322.29614,2.59125036 319.188527,2.59125036 C315.546926,2.59125036 312.570352,4.16569588 310.257496,7.31196613 C307.94202,10.4608572 306.784936,15.2975433 306.784936,21.8174382 C306.784936,34.6357704 311.413924,41.0462469 320.668624,41.0462469 C324.798349,41.0462469 328.167387,39.8223334 330.7646,37.3758167 C333.362468,34.9293 334.660419,31.5078458 334.660419,27.1075228" id="Fill-18" fill="#FEFEFE"></path>
                <path d="M358.610402,9.13270132 L349.222697,31.0334155 L366.800402,31.0334155 L358.610402,9.13270132 Z M370.782052,41.7288998 L367.085414,31.9434882 L348.824991,31.9434882 L344.615331,41.7288998 L338.755222,41.7288998 L356.04857,1.62476488 L356.389274,1.62476488 L373.513581,41.7288998 L370.782052,41.7288998 Z" id="Fill-20" fill="#FEFEFE"></path>
                <polygon id="Fill-22" fill="#FEFEFE" points="403.20626 2.07842534 403.20626 4.46793963 391.144684 3.10184769 391.144684 41.7291618 385.116189 41.7291618 385.116189 3.10184769 373.907683 4.46793963 373.907683 2.07842534 388.187767 2.25074293"></polygon>
                <path d="M410.316818,31.0332189 L427.894523,31.0332189 L418.506818,9.13250476 L410.316818,31.0332189 Z M403.603639,41.7287032 L420.727946,1.62456832 L421.06865,1.62456832 L438.361998,41.7287032 L432.501889,41.7287032 L428.292229,31.9432917 L410.031806,31.9432917 L406.335168,41.7287032 L403.603639,41.7287032 Z" id="Fill-24" fill="#FEFEFE"></path>
                <g id="Group-28" transform="translate(442.259979, 0.566093)">
                    <mask id="mask-4" fill="white">
                        <use xlink:href="#path-3"></use>
                    </mask>
                    <g id="Clip-27"></g>
                    <polygon id="Fill-26" fill="#FEFEFE" mask="url(#mask-4)" points="32.1103021 34.3928878 31.713251 1.51233257 34.1034204 1.51233257 32.7360181 43.2675714 32.4516613 43.2675714 2.69903075 8.50986823 2.92769554 41.1630691 0.596494051 41.1630691 2.13293798 0.0892382357 2.47429716 0.0892382357"></polygon>
                </g>
                <polygon id="Fill-29" fill="#FEFEFE" points="143.867302 68.115375 140.315463 68.115375 140.315463 80.9513975 138.560182 80.9513975 138.560182 68.115375 135.010964 68.115375 135.010964 66.4629606 143.867302 66.4629606"></polygon>
                <path d="M151.056615,74.4415272 L154.485276,74.4415272 C156.077412,74.4415272 157.485437,73.2582361 157.485437,71.278877 C157.485437,69.2982075 156.077412,68.1155715 154.485276,68.1155715 L151.056615,68.1155715 L151.056615,74.4415272 Z M154.239576,76.0939415 L151.056615,76.0939415 L151.056615,80.9515941 L149.322956,80.9515941 L149.322956,66.462502 L154.485276,66.462502 C156.953415,66.462502 159.218441,68.2787163 159.218441,71.278877 C159.218441,73.6251481 157.832038,75.2375952 156.056446,75.849552 L159.321962,80.9515941 L157.322292,80.9515941 L154.239576,76.0939415 Z" id="Fill-31" fill="#FEFEFE"></path>
                <path d="M173.083848,75.7276192 L170.573777,68.7484292 L168.063051,75.7276192 L173.083848,75.7276192 Z M173.695805,77.3800336 L167.472716,77.3800336 L166.185903,80.9515286 L164.369033,80.9515286 L169.593598,66.4624365 L171.572302,66.4624365 L176.796211,80.9515286 L174.980652,80.9515286 L173.695805,77.3800336 Z" id="Fill-33" fill="#FEFEFE"></path>
                <polygon id="Fill-35" fill="#FEFEFE" points="191.231118 66.4626986 186.148732 80.9511355 184.108439 80.9511355 179.028019 66.4626986 180.844233 66.4626986 185.129241 78.829598 189.415559 66.4626986"></polygon>
                <polygon id="Fill-37" fill="#FEFEFE" points="198.438973 68.115375 198.438973 72.6251163 203.092203 72.6251163 203.092203 74.2781859 198.438973 74.2781859 198.438973 79.2976728 204.45895 79.2976728 204.45895 80.9513975 196.705314 80.9513975 196.705314 66.4629606 204.45895 66.4629606 204.45895 68.115375"></polygon>
                <polygon id="Fill-39" fill="#FEFEFE" points="218.428338 79.2979349 218.428338 80.9510044 210.755291 80.9510044 210.755291 66.4625675 212.510572 66.4625675 212.510572 79.2979349"></polygon>
                <path d="M234.603587,75.7781352 C234.603587,74.72916 233.863866,74.0025432 232.504982,74.0025432 L230.608178,74.0025432 L230.608178,77.3932031 L232.437496,77.3932031 C233.863866,77.3932031 234.603587,76.8146615 234.603587,75.7781352 L234.603587,75.7781352 Z M230.608178,72.9136009 L232.235694,72.9136009 C233.432745,72.9136009 234.066978,72.4687201 234.066978,71.4734714 C234.066978,70.5457082 233.432745,70.020893 232.235694,70.020893 L230.608178,70.020893 L230.608178,72.9136009 Z M235.747566,75.8325168 C235.747566,77.5406231 234.496134,78.4828006 232.437496,78.4828006 L229.45175,78.4828006 L229.45175,68.9312955 L232.235694,68.9312955 C234.226847,68.9312955 235.209647,69.9671666 235.209647,71.406641 C235.209647,72.2806777 234.818493,72.9673273 234.133153,73.3977937 C235.075331,73.854468 235.747566,74.716056 235.747566,75.8325168 L235.747566,75.8325168 Z" id="Fill-41" fill="#FEFEFE"></path>
                <polygon id="Fill-43" fill="#FEFEFE" points="246.379889 68.9311644 242.948607 74.5010194 242.948607 78.4826696 241.791524 78.4826696 241.791524 74.5010194 238.362207 68.9311644 239.66671 68.9311644 242.370721 73.3164178 245.075386 68.9311644"></polygon>
                <path d="M267.19723,73.7069825 C267.19723,70.3189435 265.03376,68.115506 262.074877,68.115506 L259.136305,68.115506 L259.136305,79.2978039 L262.074877,79.2978039 C265.03376,79.2978039 267.19723,77.0950216 267.19723,73.7069825 M268.951856,73.7069825 C268.951856,77.7679119 266.198705,80.9515286 262.074877,80.9515286 L257.403301,80.9515286 L257.403301,66.4624365 L262.074877,66.4624365 C266.198705,66.4624365 268.951856,69.6460531 268.951856,73.7069825" id="Fill-45" fill="#FEFEFE"></path>
                <polygon id="Fill-47" fill="#FEFEFE" points="276.242659 68.115375 276.242659 72.6251163 280.895234 72.6251163 280.895234 74.2781859 276.242659 74.2781859 276.242659 79.2976728 282.262636 79.2976728 282.262636 80.9513975 274.509 80.9513975 274.509 66.4629606 282.262636 66.4629606 282.262636 68.115375"></polygon>
                <g id="Group-51" transform="translate(286.322386, 66.086090)">
                    <mask id="mask-6" fill="white">
                        <use xlink:href="#path-5"></use>
                    </mask>
                    <g id="Clip-50"></g>
                    <path d="M2.37804829,10.8246242 C2.50057068,12.5792497 3.86797301,13.4165953 5.27599775,13.4165953 C6.94806807,13.4165953 7.96821442,12.5386273 7.96821442,11.3343698 C7.96821442,9.80382265 6.58181128,9.06934348 4.84618657,8.19203073 C2.29549309,6.82528359 0.928090755,5.88638204 0.928090755,3.72291174 C0.928090755,1.62103024 2.76527147,0.173038312 5.05126416,0.173038312 C7.43946804,0.173038312 9.07091596,1.94797503 9.19343836,4.13110132 L7.43946804,4.13110132 C7.31629045,2.78466539 6.37673369,1.82545263 5.05126416,1.82545263 C3.74545062,1.82545263 2.68271627,2.62086539 2.68271627,3.80546694 C2.68271627,5.31504766 3.82604022,5.82479324 5.41752094,6.60055 C7.96821442,7.90636354 9.70449433,9.11127628 9.70449433,11.3959586 C9.70449433,13.6819513 7.78672403,15.0696648 5.27599775,15.0696648 C2.62112747,15.0696648 0.745945164,13.2337945 0.62342277,10.8246242 L2.37804829,10.8246242 Z" id="Fill-49" fill="#FEFEFE" mask="url(#mask-6)"></path>
                </g>
                <mask id="mask-8" fill="white">
                    <use xlink:href="#path-7"></use>
                </mask>
                <g id="Clip-53"></g>
                <polygon id="Fill-52" fill="#FEFEFE" mask="url(#mask-8)" points="301.93056 80.9512665 303.685841 80.9512665 303.685841 66.4628296 301.93056 66.4628296"></polygon>
                <path d="M323.962838,73.1970404 C323.962838,77.9721378 321.046543,81.1550992 316.719603,81.1550992 C312.577428,81.1550992 309.577923,77.7683706 309.577923,73.706786 C309.577923,69.6458566 312.577428,66.2591279 316.904369,66.2591279 C319.454407,66.2591279 321.331555,67.4823863 322.638679,69.2789446 L321.289622,70.2990909 C320.372998,68.9926222 318.944662,67.9115423 316.904369,67.9115423 C313.658508,67.9115423 311.332548,70.5035133 311.332548,73.706786 C311.332548,76.9107138 313.575953,79.5026849 316.719603,79.5026849 C319.635898,79.5026849 321.679466,77.563293 322.127623,74.8494547 L316.332379,74.8494547 L316.332379,73.1970404 L323.962838,73.1970404 Z" id="Fill-54" fill="#FEFEFE" mask="url(#mask-8)"></path>
                <polygon id="Fill-55" fill="#FEFEFE" mask="url(#mask-8)" points="341.351911 66.4626986 341.351911 80.9511355 339.597285 80.9511355 331.392871 69.4215816 331.392871 80.9511355 329.638246 80.9511355 329.638246 66.4626986 331.392871 66.4626986 339.597285 77.9922524 339.597285 66.4626986"></polygon>
            </g>
        </g>
    </g>
</svg>