<?xml version="1.0" encoding="utf-8"?>
<!-- Generator: Adobe Illustrator 24.0.2, SVG Export Plug-In . SVG Version: 6.00 Build 0)  -->
<svg version="1.1" id="Capa_1" xmlns="http://www.w3.org/2000/svg" xmlns:xlink="http://www.w3.org/1999/xlink" x="0px" y="0px"
	 viewBox="0 0 1920 1080" style="enable-background:new 0 0 1920 1080;" xml:space="preserve">
<style type="text/css">
	.st0{opacity:0.5637;}
	.st1{filter:url(#Adobe_OpacityMaskFilter);}
	.st2{fill-rule:evenodd;clip-rule:evenodd;fill:#FFFFFF;}
	.st3{mask:url(#mask-2_1_);fill:none;stroke:#878482;stroke-width:0.316;}
	.st4{filter:url(#Adobe_OpacityMaskFilter_1_);}
	.st5{mask:url(#mask-4_1_);fill:none;stroke:#B34918;stroke-width:0.316;}
	.st6{filter:url(#Adobe_OpacityMaskFilter_2_);}
	.st7{mask:url(#mask-6_1_);fill:none;stroke:#878482;stroke-width:0.316;}
	.st8{filter:url(#Adobe_OpacityMaskFilter_3_);}
	.st9{mask:url(#mask-8_1_);fill:none;stroke:#B34918;stroke-width:0.316;}
	.st10{filter:url(#Adobe_OpacityMaskFilter_4_);}
	.st11{mask:url(#mask-10_1_);fill:none;stroke:#878482;stroke-width:0.316;}
	.st12{filter:url(#Adobe_OpacityMaskFilter_5_);}
	.st13{mask:url(#mask-12_1_);fill:none;stroke:#B34918;stroke-width:0.316;}
	.st14{fill:none;stroke:#878482;stroke-width:0.316;}
	.st15{fill:none;stroke:#B34918;stroke-width:0.316;}
	.st16{filter:url(#Adobe_OpacityMaskFilter_6_);}
	.st17{mask:url(#mask-14_1_);fill:none;stroke:#878482;stroke-width:0.316;}
	.st18{filter:url(#Adobe_OpacityMaskFilter_7_);}
	.st19{mask:url(#mask-16_1_);fill:none;stroke:#878482;stroke-width:0.316;}
	.st20{filter:url(#Adobe_OpacityMaskFilter_8_);}
	.st21{mask:url(#mask-18_1_);fill:none;stroke:#878482;stroke-width:0.316;}
	.st22{filter:url(#Adobe_OpacityMaskFilter_9_);}
	.st23{mask:url(#mask-20_1_);fill:none;stroke:#878482;stroke-width:0.316;}
</style>
<title>Desktop Copy</title>
<g id="Desktop-Copy" class="st0">
	<g id="Group-41-Copy-2" transform="translate(-405.000000, 0.000000)">
		<g id="Group-3">
			<g id="Clip-2">
			</g>
			<defs>
				<filter id="Adobe_OpacityMaskFilter" filterUnits="userSpaceOnUse" x="-822" y="-370.6" width="3850.8" height="2516.4">
					<feColorMatrix  type="matrix" values="1 0 0 0 0  0 1 0 0 0  0 0 1 0 0  0 0 0 1 0"/>
				</filter>
			</defs>
			<mask maskUnits="userSpaceOnUse" x="-822" y="-370.6" width="3850.8" height="2516.4" id="mask-2_1_">
				<g class="st1">
					<polygon id="path-1_1_" class="st2" points="-276.9,-25.5 2360.7,-25.5 2360.7,1053 -276.9,1053 					"/>
				</g>
			</mask>
			<path id="Stroke-1" class="st3" d="M-821.8,747.4l21.8-28.8l31.1-35.4l10.4-44.1l13.7-23.8l20.5-43l28.9-9.7l6.1-9l50.2-19.8
				l16.3-22.3l70.7-13.4l55.2,1.5l81.7-7.9l74,6.9l155-22.1l21.9,9.9l57.8-49.7l25.5-7.7l23.5-21.2l45.5-3.3l28.8-22.7l-3-12.9
				l56.2-28.8l38-47.3l36.3-33.1l13.3-20l-32.6-98.8l-14.2-58.3L88.2,39.6L130-24.6l28.5-56.5l43.2-41.6l38.2-51.7 M-444.6,494.4
				l52.3-32.1l12.2-17.9l13.6-11.5l-13.1-6.7l-1.9-22.9l26.7-3.7l1.1-10.1l-12.8-29.5l51.5-77.9l12,43.1l9-6.2l4.4-37.3l20.6-26.1
				l-10.3-5.7l-17,17.5l-19.8-3.7l3.3-11l24.9-12.5l45.1-85.4l17.7-44l18.5-17.2l13-43.8l11-6.8l-5.3-18.7l28.5-51.4l59.8-40.2
				l46.6-53.7l21.6-18.8l-0.1-18l28.1-15.3l6.7-33.3l53-35l11.3-22.3l58.8-41.4l19.3-31.9l54.3-20.3l35.8-0.9l73-0.4l41.4-9
				l81.4,2.6l16.5-5.4l57.1,22.2l127.8-6.4l-1,12.9l-18.9,10.8l56.1,25l16.5-27.8l56.7,6.8l40.5,16.9l7.7,30.6l8.1-10.6l22.6,9.7
				l11.6-16l52.2,24l106.6,34l82.6,31.8l41.1,16.7l60.3,29.6l63.6,18.5l61.1,27.2l99,26.4l45.6,10.7l21.3,15.2l51.8,24.8l18.1,11.7
				l11.9-11.3l50.6,15.8l33.3,4.5l36.9-13.1l36.8,0.3l27.1-14.6l77.1,37.7l66.3,8.8l43.8,26l24.3-0.5l33.1,36.3l48.6,17.4l24.6,4.1
				l17.5,11.9l18.4-8.9l-36-20l32.8,1.4l41.9-1.9l41.4,30.3l18.3,22.5l74.2,33.9l-60.4-6.1l37.4,38.7l41.1,34l20.4-0.4l29.6,29.4
				l20.7,8.1l2.6,47.9l22.2,13.5l1.1,20.2l38.8,9.8l24.8,40.1l32.1,7.7l9,21.2l28.1-6.3l46.3,35.8l25.2,15.1l-15.2,21.3l5.9,10.6
				l36-6.4l54.4,60.5l-2.7,18.1l19.5-4.9l17.6,19.8l14.6,0.8l23.6,18.1l6.2,24.2l9.4-21.1l17.2-1.7l11.5,22.7l15.9,7.7l27.4-15.1
				l27.1,16.7l32.1-43.8l18-5.2l-21.2-32.5l47.9-8.7l5.8,22.8l12.8,7.1l8,16.8l20,9.4l4.9,33.6l-10,9l5.7,11l22.2-15.7l3.1,9.6
				l-14.8,37.8l8.5,31.1l-3.2,44.2l-7,41l-12.5,16.6l22.9,7.1l-16.8,38.3l-15.2,21.3l-3,24.7l18.2,29.7l20-57.3l35-9.7l-37.5,51.5
				l2.9,19l-18.7,31.7l-2.3,22.3l-13.6,10.4l-7.6,18.8l-14.9,10.8l4.9,14.5l-27,6.3l-9.9,22l-20.6,5.9l-2.8,14.1l20-5.7l1,13.4
				l-18.6,14.3l-32.2,25.8l-22.9,27.1l-18.5,28.4l-24.4,2.7l-19.2,38.7l-67.6,11.8l-33.7,23.4l-25.4,5.5l-9.1,12.3l-55.1,16.5
				l-24,29.3l-80.9,10.6l-62.1,17.1l-59.8,8.8l-36.6,5.5l-24.8,11.4l-44,24.9l-38.5,13.9l-13.3,17.9l-38,23.2l-5.2,14.5l-26.3,6.1
				l-50.1,38.9l-30.2,2.9l-9.8,29.9l-45.8,21.1l-31.4-9l-23.3-3.4l-1.9,23.6l-18.7,32.8l20.2,10.1l22-2.3l-2.7,17l-16.2,9l-0.2,19.5
				l-24.6,27.3l-3.6,38.9l7.4,26l-17.5,29.5l-29.4,20.7l-22.7-2.5l-28.1,22.5 M67.6-263.8l42.2,34.1l44.5,24.7l54.5,6.7l103.2,64
				l46,12.2l69.8-0.7l22.2-16.7l21.2,14.7l37.2-20.9l85.6,43.3l26.2-1l19,27.8l29,16.5 M497.8-351.1l1.5,43.4l11.3,50l0.6,18
				l13.5,26.4l5.9,28.1l11.1,20.1l11.9,6.6L543.3-105L537-71.1l12.1,31.5L569-24.9l5.1,36.1l-21.8,51.4l-6.9,67.1l-47.6,69.9
				l-30.3,64l-38.5,76.1l-22.1,10.6l-12.6,12.2l-34.9,5.7l-28.9,21.6l-6,18.8l33.6,24.6l23.7,47.8l19.2,24L368,554.8l-21.3,5.2
				l-13.5,24.3l-30.9-0.2L254.5,624l-45.2,57.6l-21.4,34.6l-21.5-3.8l-10,38l-59.6,15.7l-6.4,15.6l-41,17.1l-21.1,49.6l-32.8,24.6
				l-14.2,41.6L-75,940.3l-9.1,16.4l-12.5,2.6l-2.7,30.2l13.3,13.3l-8.1,13.2l7.8,12.5l18.7,76.8l-0.7,49.1l17.5,9.7l4.9,20.4
				 M771.5-164.6l-22.8-2l-20.1-21.3l-15.8,4.3l-14.1-7.8l-36.8-39.8l7.5-74.6l28.7,10.2l43.5,12.4l12.4,17l27.3,7.6l9.5-20.7
				 M461.2-131.8l21.6-21.9l58.8-11.5l38.2-0.7l65.8,36.6l26.7,33.7l13.8,26.4 M427.9-122.8l12.4,14.8l12.2,6.8L479.1-59L514-32.5
				l47.5,26.4L588-2.4l27.2-5.9l37.4,1.4l47.2-13 M1696.7,2145.7l18.2-13.1l12.4-5.7l22.8-41.2l16.5-16.1l5.1-19.9l-9.1-9.3
				l-4.8-26.2l-13.7,12.6l-40.9-12.6l0.3,16.1l-34.7,12.7l-5.4-11.4l11.3-11.4l-20.6-9.8l-19.9,4.1l-20.6-11.4l-6.6-13.8l-31.5,12.8
				l-23,14.2l-10.7-11l13.2-16.2l-5-7.6l22.3-11.4l-4.5-10.1l-19.2,2.8l-6.3-22l8.2-7.2l-18-25.1l44.5-65.2l38.7,8.9l22.5,12.5
				l-23.7,30.6l5.1,10.4l53.8-34.9l53-39.5l44.4-22.5l15.3,19.4l14.2,6.2l43.6-27.1l34.6-1.8l6.8-29l5-31.7l26.9-13.7l9.7-19
				l-9.9-30.7l36.8-67.9l48.4-48l24.1-17.7l12.9-56.7l1.1-33.9l-34.1-64.3l-30-182.3l-14.9-50.3l-73.8-103.2l-33.1-40.3l-9.2-37.9
				l7.1-38 M88-247.3l-52,76.4L-20.3-69.2L-46.7-4.1l34.4,19.1l-7.5,13.6l80.7,36.7l-18,23.2L54.7,95l-36.9,25.3l6.7,13.3l29.9,16.6
				l-11.9,21.5L86.9,186l14.5,12.5l12.4,33.5l24.4,2.5l34.6-22.2l25.5,9.7l10.5,5.1l8.5,112.5l19.8,104.1l-22.4-15.4L188.4,461
				l28.3,19.4l-22.9,27.9l33.6,24.6l-29.7,53.7l60.1-7.3l13.4,82.4l7.9,88.2l7.5,27.8L264,813.2l-17.8,17.5l13.2,28l-24.4,37.4
				l1.2,53.8l9.8,28.8l0,23.9l35.5,19.7l-11.3,27l-19.1-5.4l-8.4,41.8l24.9,10.9l-2.2,43.9l27.9,69.4l21.2,84.2l43.5,105.3
				 M-81,428.9l-15.6-17.5l-3.5-33l-13.2-2.9l-15.3-33.6l40.6-38.7l29.4,21.5l21.7-15.3l9.6,5.3l8.8-9.2l-9-19L-8,270.7l-2.3-55.9
				l-22.6-17.7l14.3-16.4L23.3,195l32.6,27l30.3,41.2l43.1,10.2 M55.9,222l12.6-10.7l23.9,8.8l37.5-19.8l21-37.8l70.8-38.3l38.8,1.6
				l15.8,8.8l72.2-13.1l108.3-39.6l13.1-28.9l47.6-19.4l55.8,4.4l48.1-24.2l27.1,1.7 M-250.2,1064.8l7.2-19.7l-12.5-36.5l-32.9-27.9
				l-66.9-5.7l-17.7-41.3l23-65.5l-17.6-13.5l-2.4-25l-74.1-36.7l-23.7-6.5l-37.2-14l-39.9,8.1l-37.5,26.4l-18.1-3.4l-37.6-25.3
				l-26.4,2.3l-25.1-21.3l-28-1.5l-58.2-44.2 M-651.3,842l17.8-13.1l19.6-3.9l13.3-21.4 M-809.1,751.3l16.2-21.2l28.3-27.2
				l38.1-52.7l17.8-18.9l8.9-25.3l10-31.4l27.7-12.7l19.9-18.5l37.5-19.8l44.2-6.5l24.1-8.8l71.6-11.9 M-555.5,515.2l41.3,26.1
				l31,23.9l30-19.5l16.8-22.4l15.9-2.1l5.2-29.5 M-341.3,498.5l6.2,37.6l19.4,20.9l11.6-9l12.4,12.2l21,3.4l9.2,15.2 M-173.8,482
				l-17,18.8l4.2,16.4l-24.2,25l-0.9,8.3l-40.2,13.9l-18.5,28.1l-26.8,20.3l-18.7,32.2 M-164.3,486.3l-2.5,20.5l13.4,25.1l26.4,5.8
				l9.7,14.3l3.3,23.3l13.7,4.6l9,25l13.7-10.1l14.6,25.8l18.8-2.1l3.1,20.9l14.5,12.5L-9,633.5L4.5,641l42-15.8l54.7-57.8
				 M-12,404.4l6.7,18.5l13.9,12.2l11.5,20.4l29.1-4.5l26,14.4l13.2,36.1l-0.1,21.4l-9.7,17.5l5.3,11.8l29.8,26.1l27.1,0.3
				l11.1,23.9l10.6,8.8l19.7,59l16.4,9.1l5.9,9.8 M70.1,340.1l26.2-7.1l25.4-35.4l50.2-46.7l50.7-58.2l39.9-34.7l13.8-11.6
				l-0.1-11.9 M117.1-4.7L141,28.5l25,30.8l21,30.1l51.9,35.5 M276.3,146.4l13.5,15.6l13,27.2l24,20.7l24.3,6.8l5.5,14.1l-4,12.5
				l45.1,73.1l21.9,15.1l28,46.6l24.1,51l20.2,40.8l28.2,22.3l16.6,56.5l24.9,64.3l29.8,43.3l18.4,32l4,42.1l31.7,89.3l22.3,38.2
				l12.7,47.7l37.9,24.8l25.7,33.5l1.1,61.9l18.8,54l-0.1,22.8l51.3,28.5l19.8,44.2l11.1,38.6l-3.9,99l4.2,36.3l22.5,48.7l18,46.9
				l0.2,48.1l12.8,24.8l2.5,33 M333.3,584.3l-3.1,32.2l56.2,35.7l37.4-38.3l23.2-8.5l22.7,16.3l1.9,16.6l26.4,17.6l33.3-21.4
				l21.9-4.9l8.4-16.5"/>
		</g>
		<g id="Group-6" transform="translate(996.000000, 0.000000)">
			<g id="Clip-5">
			</g>
			<defs>
				<filter id="Adobe_OpacityMaskFilter_1_" filterUnits="userSpaceOnUse" x="-276.9" y="-280.9" width="748" height="547.4">
					<feColorMatrix  type="matrix" values="1 0 0 0 0  0 1 0 0 0  0 0 1 0 0  0 0 0 1 0"/>
				</filter>
			</defs>
			<mask maskUnits="userSpaceOnUse" x="-276.9" y="-280.9" width="748" height="547.4" id="mask-4_1_">
				<g class="st4">
					<polygon id="path-3_1_" class="st2" points="-276.8,-25.5 470.8,-25.5 470.8,266.4 -276.8,266.4 					"/>
				</g>
			</mask>
			<polyline id="Stroke-4" class="st5" points="-276.8,-39.6 -261.7,-57.7 -244.5,-97 -233.4,-139.6 -215.2,-194 -185.2,-261.6 
				-175.1,-280.7 -146.2,-274.8 -128.3,-267 -101.3,-248.1 -67.2,-233 -48.4,-222.5 -14.5,-225 17.1,-211.3 35.7,-211.6 
				48.1,-204.7 66.3,-186.1 74.1,-182.9 89.6,-181.6 113.1,-168.5 140.8,-170 188.3,-169.9 224.5,-157.6 253.8,-131.7 298.8,-107.8 
				337.9,-96.6 372.7,-84.6 438,-61.1 460.1,-54.4 470.8,-44.5 442.7,-15.8 405.1,8.7 385.6,22.6 348.8,90.3 329,128.1 314.4,133.4 
				295,166.5 292.4,186.3 281.8,210.6 258.1,230.2 228.3,241.7 198.3,253.5 180.3,266.4 			"/>
		</g>
		<g id="Group-9" transform="translate(0.000000, 526.000000)">
			<g id="Clip-8">
			</g>
			<defs>
				<filter id="Adobe_OpacityMaskFilter_2_" filterUnits="userSpaceOnUse" x="-701.9" y="-25.5" width="1199.9" height="471">
					<feColorMatrix  type="matrix" values="1 0 0 0 0  0 1 0 0 0  0 0 1 0 0  0 0 0 1 0"/>
				</filter>
			</defs>
			<mask maskUnits="userSpaceOnUse" x="-701.9" y="-25.5" width="1199.9" height="471" id="mask-6_1_">
				<g class="st6">
					<polygon id="path-5_1_" class="st2" points="-276.9,-25.5 497.9,-25.5 497.9,445.4 -276.9,445.4 					"/>
				</g>
			</mask>
			<path id="Stroke-7" class="st7" d="M-442.1,5.8l22.9,12.7l7.9,27.2l15.6,8.7l13.1,22.4l48.4,24.4l37.3,38.2l-7.4,13.3l17.2,29.8
				l9.2,30.9l21.1,14.5l30.6,3.8l10.9,19.3l13.3,7.4l11.5,31.9l21.8,13.8l13.7,25.9l17.8,6.8l29.2-15.8l4.2-7.5l62-2.9l18.4,10.2
				l3,21.9l15.9,5.6 M-488.8,35.7l-6.6,11.9l14.1,28.9l0.6,7.5l10.3,9.5l-1.4,22.4l7.5,17.6l41.4,23l9.7-0.9l4.4,20.6l-14.4,8.9
				l-2,20.8l0.3,23.3l-19.2,39 M-701.8,87l51.1,36.8l3.5,27l31,11.5l53.8,28.7l27.6,5.6l28.6-16l16.2,1.8l7.3-13.2l0.2-19.3
				l18.3-16.4 M-692.2,93.9l18.5-17.4l26,0.9l30.3-29l50.4-14.5l30.2-15.1l27.1,0.7l14.7-23.1l10-21.9 M-370,305l61-17.6l16.3-5.9
				l14.4-44.4l12-15.6 M-373,409.1l-25.8,6.1l-6.9,19.9l-9.8,10.3 M497.9,130.8l-2.7,10.1l-14.2,4.3l2.4,24.5L471.7,191l0.2,8.5"/>
		</g>
		<g id="Group-12" transform="translate(559.000000, 739.000000)">
			<g id="Clip-11">
			</g>
			<defs>
				<filter id="Adobe_OpacityMaskFilter_3_" filterUnits="userSpaceOnUse" x="-277.2" y="-25.7" width="452" height="354.6">
					<feColorMatrix  type="matrix" values="1 0 0 0 0  0 1 0 0 0  0 0 1 0 0  0 0 0 1 0"/>
				</filter>
			</defs>
			<mask maskUnits="userSpaceOnUse" x="-277.2" y="-25.7" width="452" height="354.6" id="mask-8_1_">
				<g class="st8">
					<polygon id="path-7_1_" class="st2" points="-277,-25.5 174.7,-25.5 174.7,314 -277,314 					"/>
				</g>
			</mask>
			<polyline id="Stroke-10" class="st9" points="55.3,-8.7 39.9,-10.6 25.6,-2.1 6.3,-12.8 -8.7,-13.7 -18,-18.9 -29.7,-17.3 
				-40.7,-25.5 -56.8,-20.6 -61.6,-23.3 -92.8,-12.5 -119.5,26.1 -144.4,31.6 -162.2,63.8 -175.2,69.2 -186.6,89.8 -193.7,111 
				-205.9,118.6 -208.5,138.6 -233.7,158.2 -264.7,206.2 -277,247.3 -252.9,248.5 -187.4,294.6 -177.8,300 -160.5,328.6 -137.7,295 
				-103.8,285.2 -80.9,297.6 -67.1,297.7 -46.9,308.1 -22.7,300.1 7.3,273 34.9,265.6 67.4,222.7 64.4,211.4 78.1,195 117.8,190.6 
				157.4,220.6 174.7,210.9 			"/>
		</g>
		<g id="Group-15" transform="translate(587.000000, 13.000000)">
			<g id="Clip-14">
			</g>
			<defs>
				<filter id="Adobe_OpacityMaskFilter_4_" filterUnits="userSpaceOnUse" x="-277" y="-25.5" width="2669.5" height="2175.2">
					<feColorMatrix  type="matrix" values="1 0 0 0 0  0 1 0 0 0  0 0 1 0 0  0 0 0 1 0"/>
				</filter>
			</defs>
			<mask maskUnits="userSpaceOnUse" x="-277" y="-25.5" width="2669.5" height="2175.2" id="mask-10_1_">
				<g class="st10">
					<polygon id="path-9_1_" class="st2" points="-277,-25.4 1773.7,-25.4 1773.7,1040 -277,1040 					"/>
				</g>
			</mask>
			<path id="Stroke-13" class="st11" d="M-187.2,492.2l46.1-8.6l28-1.3l20.2,0.7l25-3.7l12.9-14.8l23.4-2.1l33.9-1.3l27.4-3.3
				l25.7,3.7l15.7-1.8l41.8,26.9 M-54.9,464.6l-2.6-32.5l3.7-24.8l-11.6-32.1l32.5-68.5l11.4-34.9l30.1-54.3l21.2-11.8l5.9-22.8
				l6.6-11.9l21.6-16.2l7.4-18.6l14.2-27.9l20,14l19.8,13.5l31.3,17.8l13.6,5.8l4,25.3l-17.7,18.3l-8.9,12.3l-8.7,17.9l33.7,46.9
				l6.8,21.8l-10.7,19.3l16.9,15.8l6.7,15.3 M-92.8,192.2l31.3,17.4l26.6,39.2L-4,270.5l50.8,28.2l15.7,2.8l23.4-4.3l11.1,4.9
				l11.6,47.2l12.5,24.4l2.8,41.2l15,35.3 M96.9,302.1l15.7-32.1l4.5-33.2l21.7-3.5 M-277,1266.2l22-6.5l68.7-3.6l11.9-29.1l21.3,21
				l11.9-5.1l24.9,17.2l-22,33.7l-4.3,10.1l28.7,17.2l13.7-15.5l2.8-12.7l-12.9-14.7l24.4-44l11.3-18.9l31,24.4l7,6.4l-2.9,5.1
				l28.9,27.4l15.5-28l22.4,17.9l10.3-22.4l-43.8-21l17.2-13.6l23.6-13l21.2,11.8l13.9-18.3l23.9-4.4l7.6-0.8l9.9,8l5.9,15.1l-10,18
				l32.8-0.7l23.6-28.9l6.9-15.5l19.2,7.7l6.8-12.2l43.5,20l32-39.4l16.3-14.9l10.5-2.2l18.1-24.4l28.9-2.9l19.6,22.2l25.2,14.4
				l36.4-35.3l13.4-29.5l49.5-4.5l16.9,12.7l8.8-9.8l14.1,7.8l27.2-8.1l45.9,34.7l28.5-31.7l-9.6-13.7l75.5,0.3l9.5,15.4l17.2-3
				l4.4-14.8l84.2,46.7l34.8-3l6.4-7.8l59.1,32.8l41.8,25.3l34.1-16l34.2-6.3l33.2-6.8l6.4-11.6l15.4,6.4l40.6-14.1l17.9-27
				l23.6,10.5l79.5-21.4l46.1-13.5l55.7-14.9l60.6-16.8l78.5-46.8l54.8-35.2l17.5-16.4l70.3-36.6l47.4-27.9l48.2-26.2l25.1-15
				l37.1-63.9l10.1-25.1l27.4-57.1l57.2-111.6l57.5-110.6l20.9-35.5 M705.7,1783.3l-11.7-21.8l-23-20.7l-65.1-76.5l-76.4-52.5
				l-120.8-67l-80.6-3.2l-21.3-6.3l-22.7,8.4l-40.5,61.6l-2.5,20.5l-7.7,20.7l-26.3,21.2l-56.9,0.7l-76.3,39.9 M275.1,1371.8
				l-20.1-6.9l-27.4,13.8l-12.9,1.3l-14.2,8.9l-28.9,14.2l-9.4,11.6l16.1,22.4l16.2-21.7l13.6-14.7l-1.9-15.5 M2363.4,963.4
				l-1.3,5.1l-12.6,16.6l-14.9,32.9l-28.9,17.2l-17.9,29.2l-22.4,20.8l-34,41.7l-35.6,43.7l-41.9,45.3l-22.7,10.5l-37.3,15
				l-34.4,19.6l-57.2,17.5l-54.2,28l-45.5,18.5l-77.9,13.1l-36.3,17.7l-45.1,5.6l-57.1,15.8l-53.8,28.1l-54.2,40.9l-71.5,44.8
				l-37.6,22.9l-38.9-10.1l-67.2-8.7L1335,1507l-35.6,18.7l-48.3,30.9l-33.5,1.3l-16.7,14l-51.5,10.6l-59.7,13.7l-75.7,7.3
				l-61.6,50.4l-48.1,31.6l-53.4,19.4l-70.4,33l-43,26l-27.4,7.5l-11.3,29l-26.3,41.2l-9.1,41.5l-77.8,76.7l-81.5,32.9l-14.9,157
				 M691.2,1812.7l-10.1-40.1L696,1750l24.5,0.8l19.3,3.8l24.9-6.9 M2349.6,985l11.3,12.2l10.9,22l11,12.8l9.5,9.5l-9.6,8.1
				L2366,1063l-21.6,16.2l-21.7,30.8l-15.5-8.6l-15,2.2l-13.2-17.8l-8.7-5.2 M2263.4,1087.7l-18.8-18l-23.6-52.2l-10.3-27.6
				l-3.9-12.7 M2371.6,977.9l-45.3,1.8l-47.6-1.6l-27.1-1.2l-27.3-0.8l-51.5,0.4l-101.9-1.1l-70.2-5.3l-34.7-1.2l-27.6-0.2
				l-52.1-9.1l-60.8-12.3l-54.6-0.9l-30.4-5.1l-41.6-20.5l-22.5-8.7l-36.5-15.2l-54.4-24.7l-10.3-5.7l-82.3-9.9l-59.9-14.7l-51.3-15
				l-64.9-12.5l-69.4-12l-55.9-7.5l-50.7-13.8l-35.5-24.7l-42.8-30.5l-75-22.3L900,682.9l-27.4-12.7l-36.3-34.5l-52.1-43.2
				L619.5,452.9l-97-82l-41.7-25.6l-28.6-23.4l-24.8-35.6l-12.8-46.6l-21.3-24.4l-51-30l-22.6-7.1L299.3,150l-26.8-18.3l-27.4-8.9
				l-17.8-10.3l-5.4-22.8l-18.9-25.8l-9.1-16.2L175,33.1L164.3,6.2l-3.1-9.7l-10.6-8.2l-14-13.6 M2146.9,1219.1l-0.8-15.4
				l-44.7-24.8l-24.9-21.8l-43.4-24.1l-11.4-41.6l-2.2-44.5l-8.9-26.4l-10.9-22.8l-19.2-28.3 M2198.2,976.3l-12.8,10.1l-93.7,3.9
				l-44.8-3.4l-49.9-2.5l-25.2,5.3l-21.8-10l-59.3-6.7l-63.9-6.7l-44.2-9.8l-23.8-4l-51.8-9l-37.5-18.7l-36.7-10.3L1583,890
				l-63.3,8.1l-32.4,7.7l-31.1,0.8L1421,914l-13.9-3.1l-41.3,11.6l-23.9,0.7l-20.3,6.3l-21.3,1.2l-23.2,6.9l-34.2-27l-23-12.3
				l-29.3-37.3l-28.3-23.3l-19-17.3l-26.6-7.7 M1167.7,842.2l26.4-19.2l19.7-15.1l16.1-8 M1264.5,805.2l9.9,19.4l25.7,14.3
				l19.1-14.1l5-9.1 M1365.8,922.5l-2.2-18.8l10.2-18.3l23.7-23.8l13.7-26.1l6.2-28.8l5.7-10.3l32.1-5.7l4.8-8.7l1.2-20.2l2.2-15.6
				l-5.4-13l36.5-39.8l33-55.4l11.5-34.8l-11-27.7l-3.6-33.5l-8.1-17.2l6.2-8.9 M1365.2,823.6l3.1,27.2l-1.7,21.3l4.3,18.8
				 M1621.5,909.1l-13.2,30.8l-21.3,25.2l-21.9,46.1l-4.3,33.5l-8.3,15L1521,1070l-43.5,19.8l-36.8,13.8l-17.6,16.6l-39.9,25.5
				l-22.5,13.3l-10.4,12.7l-8.4,7.1l1,18.5l-6.7,19.2l-12.3,15 M1118.4,1117.3l12,19.8l31.4-6.1l32.5-6.1l23.5,19.2l42.1,4.9
				l54.6,10.7l27.5,19.2 M710.3,1771.5l-0.1-43.8l21.2-69.5l10.2-70l1.5-32l8.3-34.6l-7.3-45.5l-2.1-34.5l-15.9-69.3l-24.3-53.2
				l-8.2-33.7l4.6-65.8l1.8-42.7l-4.6-26.1l5.9-10.7l26.5-5.4l25.2,16.2l27.4,6.2l56-5.9l17.5,22l13.9,14.4l18,41.4l12.9,37.4
				l16.5,24.8l44.4,8.9l24.5,16.4l26.5,22l13.5,17l4.9,38.6l7.9,10l-6.9,12.4l8.9,52.6l7.3,25.3l20.1,12.3l15,29.6l13,34.1l4.7,23.9
				 M836.4,1151l6.6-17l23.3-37l31-58.4l33.7-84.4l28.7-61.9l28.9-41.1l17.9-13.1l30.9,4.8l13.7-2.5l12.8,29.5l8.1,21.8l-4.1,7.4
				l8.1,11.7l0.1,38.2l-3.2,22.9l-8.3,15l15.2,33.1l11.3,28.1l9.5,9.2l0.3,28.7l-8.3,15l-31.3,10.1l-14.8,1.3l-14.9-15.6l-34.1,8
				l-23.9-5.4l-56.7-27l-29.2-15.8 M1092.7,1101l19.4,8.5l6.4,7.7 M258.4,1200.9l15.5-27.9l15.4-12.2l41-4.2l40.6,19.7l57.4,10.6
				l59.2-0.8l47.3,5.5l22.9-6.9l56.4-52.2l20.3-7.3l31.3,2.2l25.1-1.2l10.5,13.7"/>
		</g>
		<g id="Group-18" transform="translate(842.000000, 561.000000)">
			<g id="Clip-17">
			</g>
			<defs>
				<filter id="Adobe_OpacityMaskFilter_5_" filterUnits="userSpaceOnUse" x="-276.4" y="-24.7" width="649.8" height="596">
					<feColorMatrix  type="matrix" values="1 0 0 0 0  0 1 0 0 0  0 0 1 0 0  0 0 0 1 0"/>
				</filter>
			</defs>
			<mask maskUnits="userSpaceOnUse" x="-276.4" y="-24.7" width="649.8" height="596" id="mask-12_1_">
				<g class="st12">
					<polygon id="path-11_1_" class="st2" points="-276.3,-24.6 373.3,-24.6 373.3,493 -276.3,493 					"/>
				</g>
			</mask>
			<path id="Stroke-16" class="st13" d="M-26.8,571.3L-6.7,535l15.4-22.8l1.8-39.7l2.9-24.5l4.5-19.7l2.4-19.5l8.2-14.8l5-24.7
				l3.7-11.7l2.7-17l6.2-19.3l4.1-12l11.6-21l19.8-11.5l12.7-24.9l13.4-1l27.1-60.2l13.7-23.8l17.3-11.5l19.6-29.3l10.7-18.8
				l23.6,10.6l44-11.2l18.3-6.7l6.6,3.7c0,0,24.5-36.1,25.1-35.7c0.6,0.4,17.5-20.6,17.5-20.6l13.9-31.3l15.5-24.5l12.6-16.3
				 M-276.3,58.8l5.9-10.6l15.1-33.4l24.2-7.3l6.4-5.4l36.4-5.1l25.1-5.1l4.3,17.7l17.2,6l12.9,21.7l16-2.2l25.8-10.6l32.3-0.6
				l7.6-18.8L-12,54L36.8,52l12.5,0.8l5.8,8.8L44.3,80.9l1.8,19l-6.1,11l7.6,41l-1,33.1l22.1,37l25.5,29.9"/>
		</g>
		<path id="Stroke-19" class="st14" d="M950.6,810.6l26.1,19.6l16.5-6.5l32,31.2l37.1,12.8l36.4,4l37.6,19.9 M898,621.5l18.5-17.2
			l43.9-26.7l43.1-19.2l6.2-11.2l34.1-13l57.1-18.2l15.2-27.4l30.1-37.1"/>
		<polyline id="Stroke-21" class="st15" points="1085,369.5 1094,395.7 1125.1,427.5 1162.7,474.7 1201.9,526.1 1228.8,548.2 
			1304.2,593.9 1361.1,631.6 1385.3,642.4 1395.6,669.2 1390.6,678.2 1403.5,704.4 1419.9,716.3 1458.4,768.9 1500.3,792.2 
			1568,808.5 1609.4,809.5 1637,806.7 		"/>
		<g id="Group-25" transform="translate(921.000000, 0.000000)">
			<g id="Clip-24">
			</g>
			<defs>
				<filter id="Adobe_OpacityMaskFilter_6_" filterUnits="userSpaceOnUse" x="-277.2" y="-275.2" width="447.3" height="652.7">
					<feColorMatrix  type="matrix" values="1 0 0 0 0  0 1 0 0 0  0 0 1 0 0  0 0 0 1 0"/>
				</filter>
			</defs>
			<mask maskUnits="userSpaceOnUse" x="-277.2" y="-275.2" width="447.3" height="652.7" id="mask-14_1_">
				<g class="st16">
					<polygon id="path-13_1_" class="st2" points="-277,-25.5 170,-25.5 170,377.4 -277,377.4 					"/>
				</g>
			</mask>
			<path id="Stroke-23" class="st17" d="M-277-41.8l3.7,21.7l-0.4,25.6l3.5,20.5l14,7.8l33.6-7.6l25.5-2.4l21-3.5L-162,5.2
				l14.1-25.4l2.8-17.5l-18.2-24.7l-6.6-13.8l-22.4-12.5l-28.3,12.9l-25.1,10.8L-277-41.8z M-187.2-57.7l18.9,4.4l12.5,22.7l15,16.6
				l10.8,2.8l18.9-10.8l3.9-6l-10.4-18.2L-187.2-57.7z M-193-23.1l37.3-7.6L-193-23.1z M-248.5-93.3l13.2-30.6l13.1-5.4l-2.3-19.4
				l8.9-16l6.5-19.3L-248.5-93.3z M-41.2-275.1l-5,5.9l4.3,18l0.3,39l-2.2,39.7l-1.8,18.4l-1.1,36.9l-15.7,28.4l-19.6,25.4
				l-10.3,11.2l-17.2,3.5l-35.8,11.2L-41.2-275.1z M-92.1-52.4c0,0,10.5,10.8,10.8,10.8c0.3,0.1,14.7,2,14.7,2l17-14.3l17.3,1.8
				l28,13l33.5,18.6l17.2,1.2L79-1.1L98.3,9.6L-92.1-52.4z M-109.3-48.9l1.9-17.9l10.8-19.6l20.2-2.5l19.9-39.5l10.5-11.7
				L-109.3-48.9z M-215.7-164.7l31.8,20.1l25.1,4.9l16.5,12.3l8.7,10.7l19.8,13.5l17.2,16.9l14.7,22.8L-215.7-164.7z M-108.2-58.8
				l-13.8-5.4l-8-16.9l-21-3.2L-169.9-97L-108.2-58.8z M-141.5-82.8l16.5-12.6l11.2-7.8L-141.5-82.8z M-51.1-109.1l31,0.9l13.5,7.5
				l6.8,16.7l-11.9,24l-16.3,10L-51.1-109.1z M-222.3-129.3l8.9,6.5l0.5,14.8l14.2,7.9l16.6,2.5l10,5.6L-222.3-129.3z M-240.3-77.6
				l10.7-12.9l18.7-8.4l5.5-4.8L-240.3-77.6z M-235.9-69.1l3.4,22.3l13.6,13.2L-235.9-69.1z M-213.9-37.7l8-5.1l9.5,8.6l4.8,15.7
				l-5.9,6l-15,2l-9.6-9.3l-3.2-6.3l6.5-7.6L-213.9-37.7z M-247-12.9l0.3-13.7l14.2-20.2L-247-12.9z M-165.8,9.2l31.2,15.1l38,15.5
				l26,11.9l36.5,2.1L-165.8,9.2z M-66.6-39.6l4.8,15.6l6.9,5.4l14.8-3.4l17.1,6.7L-7.7-3.5L-66.6-39.6z M170-200.2l-8.6,10.6
				l0.1,8.5l5.2,14.4l-4.8,19.3l-4.6,25L138.2-94L135-82.2L121.2-73l-16.6,7.6l-5.1,6.1l-30.6,8.6l-28.3,5.9L30.4-33.3L17.9-10.7
				L2.1-6.5l-9.8,3L-27.2,21l2.4,12.3l12.2,15.5l8.9,13.2l19.8,14.5l20.6,18.5l24,19l28.6,15.9l8.2,8.3L170-200.2z M-86,44.7
				l19.6,2.6l24.8-4.2l9.3-5.2l-1.8-12l6.9-4.9L-86,44.7z M-16.4,43.9l-11.3,1l-6.4,8.9l15.7,14.2l10.6,1.7L-16.4,43.9z M-3.6,62.1
				l-4.2,7.6l9.5,35.6l21.3,25.9l-9.3,4.1l-3.8,10.8l7.1,27.8l6,24.1l6.8,21.7l14.6,14.3l18.3,13l3.3,7.7l1.9,19.3l1.6,16.4
				L-3.6,62.1z M33.1,223.1l-11.7,10.6l-6.2,19.3l-0.3,8.6l-6.8,12.2l6.1,20.8l0.5,20.8l-15.6,20l-10.7,11.8l-4.6,6.3L33.1,223.1z
				 M8.2,273.9l-19.9,10.6l-28.5,17.9l-17,14L8.2,273.9z M-131.1,77.1l-15.1,8.3l-9.2,9.5l1.3,13.9l-5.7,10.3l3.8,21.2l-1.6,20.8
				l-6.3,11.8L-131.1,77.1z M-157.6,161.1l7.4,11.1l9,5l1.8,16.5l10.4,21.2l8.5,15.1l4.1,18l9.4,16.5l20.8,27.3l7.7,13.5l40.5,21.1
				l11.9,14.5l3.3,7.7l21.7,16l30.6,12.8L-157.6,161.1z"/>
		</g>
		<polyline id="Stroke-26" class="st15" points="1014.3,301 1000,295.4 989.8,291.5 975.2,303.8 964.5,314.4 965.8,338.4 
			964.1,355.6 950,378.1 951,395.4 954.9,412.2 960.8,434.3 962.2,449 976.5,465.1 983.6,488.6 1001.1,512.7 1006.9,527.4 
			1015.7,558 1044.5,576.8 1074.5,590.7 1095.1,598.5 1100.9,613.8 1113.4,619 1118.6,641 1123,662.5 		"/>
		<g id="Group-30" transform="translate(1058.000000, 151.000000)">
			<g id="Clip-29">
			</g>
			<defs>
				<filter id="Adobe_OpacityMaskFilter_7_" filterUnits="userSpaceOnUse" x="-276.8" y="-24.9" width="674.8" height="980.9">
					<feColorMatrix  type="matrix" values="1 0 0 0 0  0 1 0 0 0  0 0 1 0 0  0 0 0 1 0"/>
				</filter>
			</defs>
			<mask maskUnits="userSpaceOnUse" x="-276.8" y="-24.9" width="674.8" height="980.9" id="mask-16_1_">
				<g class="st18">
					<polygon id="path-15_1_" class="st2" points="-276.8,-24.8 397.9,-24.8 397.9,902 -276.8,902 					"/>
				</g>
			</mask>
			<path id="Stroke-28" class="st19" d="M-121.1,110.6l19.3,12.7l17.9,6.6L-68,127 M-121.2,164.3l13.8-0.2l7.7-1.3l7.6-0.6
				 M-276.8,26.4l15.3-4.9l11.9-15.8l6.3-11.3l-2.8-12.2l3.7-6.9 M-249.6,5.6l11.3,9.4l16.8,20.2l12,2.5l7.8-18.2l6.9-5.9L-186,2
				 M-54.8,408.6l1.9,23.8l6.2,19.1l14.1,22.1l9.6,28l3.6,15.7l1.6,17.4l17.2,11.8l16.1,34.1l7.9,13.6l27,15l20.9,16.3l5,14.2
				l-0.3,9.1l7.1,19.9l-3.3,6l3.6,18.2l0.5,19.3l-9.3,16.7l5.5,18.4l16.1,17.9l30.2,13.1l31.4,19.6l24.4,11.6l32.5,15.6l17.8,15.3
				l16.8,9.6l10.6,15.7l17.4,8l23.8-1.6l11.1,17.9l27.1,14.8l6.6,16.3l11,8.4l30,20l11.1,6.1 M21.5,591l7.9-14.2l14.3-12.8
				l13.4-30.7l16-19.7l13.9,7.7l15.7,27.2l27.5,18.1l11.1,27.4l16.4,15.8l23.2,11.7l26.6,8.6l5,11.2l17.3,0.1l13,7.8l9.7-17.6
				l14.5,0.2l14.2-25.7l27.2-15.7l18.7-26.6l25-6.4"/>
		</g>
		<polyline id="Stroke-31" class="st15" points="1205,752.5 1220.2,739.7 1245.5,739.7 1263.6,726.2 1290.3,696.2 1323.7,668.2 
			1339.6,670.8 1370.5,648.5 1384.8,642.9 1397.5,628.6 1423.9,590.5 1459.6,564.4 1483.7,553.2 1495.3,559.7 1529.9,544.6 
			1560.6,550.9 1588.1,553.9 1629.5,528.7 1678.5,524 1723.9,518.9 1735.2,510.6 1740.1,494.8 1768.4,467.9 1787.7,427.1 
			1792.1,389.7 1813.6,363 1849.9,340 1871.7,310.7 1889.9,297.2 1917.4,247.5 1934.7,233.5 1961.9,211.7 1979.5,179.9 1979.3,154 
			1997.3,127.6 2020.5,105.8 2034,94.7 2043,78.5 		"/>
		<g id="Group-35" transform="translate(1067.000000, 1.000000)">
			<g id="Clip-34">
			</g>
			<defs>
				<filter id="Adobe_OpacityMaskFilter_8_" filterUnits="userSpaceOnUse" x="-277" y="-274.8" width="1324" height="1132">
					<feColorMatrix  type="matrix" values="1 0 0 0 0  0 1 0 0 0  0 0 1 0 0  0 0 0 1 0"/>
				</filter>
			</defs>
			<mask maskUnits="userSpaceOnUse" x="-277" y="-274.8" width="1324" height="1132" id="mask-18_1_">
				<g class="st20">
					<polygon id="path-17_1_" class="st2" points="-276.9,-25.5 1046.8,-25.5 1046.8,857.1 -276.9,857.1 					"/>
				</g>
			</mask>
			<path id="Stroke-33" class="st21" d="M1046.8,99.6l-17.8,32.1l0.8,41.9l-23.7,42.8l-29,18l-7.9,15.2l-8.3,20l-11.6,21l-29.4,10.6
				l-28.5,51.4l-21.1,21.9l-7.2,19l1.8,20l-4.2,26.8l-5.5,16l-19.7,24.4l-19.9,14.7l-33.6,48.5l-17.7,29.9l-32.6,39.6l-29.2,46.6
				l-23.2,41.9l-24.4,19.8l-13.3,29.1l-28.1,45.6l-27,37.6l-13.5,18.3L1046.8,99.6z M968.6,93.2l19.2,16.8l16.7,3.1l24.2-1.2
				l8.6,4.7L968.6,93.2z M830,285.6l-18.8-10.4l-22.7-38.9l-12.9-42.4l-8.4-18.1l-11.3-33.1l-18-10l-8.6-18.8l-9.9-3.3l-6.9-11.7
				L700,98.2l-26.2,34.2l-41.7-9.7L590,139l-25.6,4.8l-13.8,24.8l-66,11l-13.7,20L830,285.6z M-276.9-274.7l9.7,5.3l15.7,3.2
				L-276.9-274.7z M-9.6-82.1L19-53.9L67.8-42l32.7-0.4l32.1,17.8l29-0.7L195.7-4l22.8,10.4l47.5,2.2l23.1,7.8l18.4,0.1l9.6,5.9
				L330,38.5l24.1,15.1l26.6,33.8l-0.3,58.5L-9.6-82.1z M-156-60l20.1,8.6l24.7,14.9L-156-60z M-128.1,76.1l24-24.2l22.7-23.1
				l16.8-2.8l17.7-2.1L-128.1,76.1z M87.7-169.5l-27.2,49l-32.3,42L8.9-43.8L-13.8-9.9l-8.7,15.6L87.7-169.5z M100.5-42.3L124.7-77
				l26.3-41.4l3.6-14l-2.2-15.4L100.5-42.3z M161.5-25.2l21.4-38.5l15.8-39.6l8.9-16.1L161.5-25.2z M292-88.6l-20.1,25.9l-30.8,31.3
				L219.6-4.8l-5.2,9.3l-40.3,23.2l-40.3,22.1L90,76.5L67.6,90.6L31.4,75.2L15.2,50.9L-3.9,37.8l-18.8-8.4l7.6-13.7l8.8-6.9
				l26.9,6.5l16-5.1l15.8,26.2L292-88.6z M260.4,127.6L295,130l27.2,4.7l26.9,9l22.5-2l39.2,18.7l49.1,30.3l16.4,13.6l32.8,44.5
				l32.6,1.8l24.1,12.5l34.3,27.5l35.7,22.6l40.5,24.6l17.1,18.3l20.4,26l36.9,20.5l34.8,23.5l35.8,15.7l22.8,9.7l10.8,4.7
				L260.4,127.6z M863.7,421.3l-12.8,2.4l-13.2,10.3l-18,32.4l-7.5,13.5l1.7,6l4.5,7.3L863.7,421.3z M824.6,295.5l2,19.4l-5.2,31.4
				l5.7,22.2l13.2,11.1l10.6,27.8l14.1,6.1L824.6,295.5z M679.2,701.9l11.4-2.6l22.1-10.4l24.7,12l17.8,12l18.1,24.6l13.8,20.8
				l-9.8,17.7l5.7,13.2l-8,17.5l-5.9,7.6L679.2,701.9z M774.6,739.4l10.6-0.3l18.5,6l14.7-4.5l9.1,1.7l25.5-30l13.7-24.7l-15.7-17.9
				l-11.9-6.6l-14.4-32.3l-20.9-11.6l-20.1-34.2L773,559l-62.5-29.6l-40.6-20.7L640.2,495L614.6,482l-13.9-14.4l-29.8-6.9L537,444
				l-13.9-2.2l-21,2.2l-18.3-10.2l-8.7-7.8l-12.4-1l-13.8-4.7l-9.9-2.6l-8.1-6.6l-43-1.2l-24.2-4l-14.8-8.2l-42.9,5.4l-12.9,2.1
				L282.4,420l-10.7,8.7l-15.3,3.3l-7.5,13.5l-5.3,9.6L222,468.4l-12.2-6.8l-24.2,1.3l-12.7-9.9l-4.9-15.9l-14.7-10.6L139,396.3
				l-4.1-10.7l-18.6-21.8l-19.8-24.1l-9.3-7.5l2.5-28.7l-1.2-22.1l-13.9-24.9L51,234.6l-10.3-12.4l-20.2-11.2L4.5,192L-24,158.6
				l-8-9l0.8-12.5l-8.9-12.2l-4.3-43.7l-1.7-32.8l1.4-11.4l-2.9-18.3l1.4-9.3L-32.5,6l16.7-0.5L17.2,26l19.1,6.4L84,44.2l35.7,5.4
				l25,10.2l44,24.4l19.3,5.3l16.7,9.3l12.8,24.7l8.3,9.5L774.6,739.4z M731.6,698.1l-2.7-16.2l-18.3-10.2l-16.5,3.5L731.6,698.1z
				 M-70.7,243.7l34.8-10.3l15.3-2.8l16.4-3.7l17.6-5.2l14.4-16.8l15.1-17.4l12.4-5.7l0.6-15.3L-70.7,243.7z M-32,149.6
				c0,0-11.9,2-12.1,1.7c-0.3-0.3-5-11.2-5-11.2l6.4-7.9l7.6-0.4L-32,149.6z M-31.2,137.1l32.4,0.1l36,19.9l14.9,9.1l18.9,0.5
				l26.6-9.4l7.9-5.8L-31.2,137.1z M67.6,90.6l14.1,23.5l14.9,24.2l2.8,8l11.9,10.3l16.7,9.3l9.4,5.2l9.3,26.1l15.4,16.6l11.8,8.6
				l6.5,10.4L67.6,90.6z M122.5,162.8l3.8,19.3l-13.9,25l-3.8,16.7l-4.5,14.9l-4.7,20L122.5,162.8z M74.6,256.4l13.4-0.3l7.2,1
				l12.1,4.3l10,9.6l4,11.3L74.6,256.4z M88.8,286.5l13-3.4l11.6-3.9l17.7,6.7l18.6,6.3l13.3,10.1l5.5,21.9l13.7,18.2l21,11.7
				L220,368l14.4,15.2l14.4,9.4l4.3,7.9l16.5,9.1l11.5-0.8l12.3,6.8l16.2,16.1l16,10l23.6,29.6l8,15.2l24.7,22.5l19.4,25.1l10,9.9
				l11.6,15.8l15.6,21.5l18.6,19.5l9.3,15l6.7,17l12.9,16.6l8.8,14.3l4.2,18.5l4.7,11.9l8.4,11.4l6.5,19.8l9.6,15.6l24.3,11.8
				l12.5,11.1l10.7,14.3l14.5,7.7L88.8,286.5z M24.2,370.9l28.1-11.1l9.9-9.5l6.3-12.1l11.8-4.1l6.9-1.9L24.2,370.9z M-0.9,225.8
				l18.2,11.7l13.2-1.1l11.4-4l3.8-4.3L-0.9,225.8z M579.3,795.2l-8.1,10.1l1.1,15.8l8.8,7.8l18.1,20.3l14.6,1.9l19.1-13.8l7.4-16.9
				l-7.6-27.2l-12.2-8.5l-30.2,1.2L579.3,795.2z M518.4,857.1l-2-16.2l0.5-16.5l-10.3-17.3L518.4,857.1z"/>
		</g>
		<path id="Stroke-36" class="st15" d="M1005,521.9l-22.4,1.9l-33.5-18.6l-15.5-20.8l12.8-23.1l15.8-13.1 M855,1008.5l-10.5-6.7
			l-1.3-27.6l-0.4-17.9l-15.1-9.4l-12.5-30.1l-4.2-6.3l-10.5-26l-9.3-33.1l-10.7-28.7l-26.6-21.1l5-18.2l-11.2-32l-6-36.1l-5.9-37.3
			l-14.9-25.7L705,622.6l-10.4-24.3l-0.6-9.2l7-25.9l4.5-30.1L695,512.8l12.8-26.5l16.2-16.8l9.2-18.6l18.8-25.7l14.1-32l10.2-21.2
			l15.9-26l23.8-13.5l3.3-17.7l23.4-9.4"/>
		<g id="Group-40" transform="translate(741.000000, 52.000000)">
			<g id="Clip-39">
			</g>
			<defs>
				<filter id="Adobe_OpacityMaskFilter_9_" filterUnits="userSpaceOnUse" x="-277.1" y="-25.5" width="2511.1" height="1288.5">
					<feColorMatrix  type="matrix" values="1 0 0 0 0  0 1 0 0 0  0 0 1 0 0  0 0 0 1 0"/>
				</filter>
			</defs>
			<mask maskUnits="userSpaceOnUse" x="-277.1" y="-25.5" width="2511.1" height="1288.5" id="mask-20_1_">
				<g class="st22">
					<polygon id="path-19_1_" class="st2" points="-277,-25.4 1619.7,-25.4 1619.7,1001 -277,1001 					"/>
				</g>
			</mask>
			<path id="Stroke-38" class="st23" d="M-137.7,625.7l23.1-5.2l10.2,0.8l16.1-2.2l15.5,10.3l22.5,1.5l16.3,6.9l10,20.2l25,7.4
				 M-148.1,607.5l16.8-23.6l15.2-30.7l-3.2-29.1l12.2-15.2l-24-15.3l-48-26.6l-16.6-18.9l-21.9-11.2 M-277,362l17.3-14.4l20.5-5.9
				l20.5-5.2 M-89.3-25.4l-6.6,19.6l-10.3,10.9l-12.1,25.7l17.3,20.6l9.7,31.3l0.9,9.7l9.3,3.5 M-47.9,83.8l10.8-19.5l-2.8-23.7
				l-0.1-11l-9.5-12.2l-10.4,18.8l-19.5,1.3l-21.7,13.9 M-95.9-5.9l10.2,18 M-54.5,26.4l-9.4-5.2 M21.6-5.3l-8.3,9.8l6.2,22.1
				l11.7,10.3 M-116.6,708.9l53.7,16.9l35.1,12.5l24.3,12.1l16.4-1.3l32.2,0.3l35.5-2.7l26.3-9.6l12.7,1.1l2.1-15.8l6.2-11.9
				l19.7-16.8 M3,912l20.8,0.3l37.6,6.3l34.4-1.4l13.8-2.7l29,10.8l3.9,18.7l5.5,11.2l4.7,18.8l8.4-3.6l30.4,16.9l37,10l23.6,6.4
				l28.4,13.5l44.3-2l43.7,1l16.8,6l38.9-7.5l25-7.7l26.4-5.8l15.1-13.2l20.9-37.7l25.9-6.9l11.1-13.4l27.1-18.6l22.1-39.8
				l28.7-17.4l17.5-18.9l-4.9-27.1l-7.6-28.3l5-30.8l5.9-17.7l9.1-15.4l20.9-18.1l16.8-19.1 M948.4,254.6l-15.6,18.6L918,300
				l-14.3-7.9l-25.9,9.6l-43.9,5l-30.6,24.2l-19.4,6.9l-28.4,22.5 M1179.8,405.4l83.4,41l39.8,22.1l43.7,9l42.4-0.2l9.6,5.3
				l33.2,0.8l31.3,14.8l21.8,10.7l11.1,17.8l18.9,8.9l26.3,28.3l45.1,32.8l36.4,26.7l1.7,9.1l2.3,28.7l9.9,23.1l16.9,24.5l12.4,11.7
				 M1703.6,304.5l-18.7,15.2l-26.5,5.1l-21.9,31.1l-24,38.8l-37.2,15.5l-10.6,5.5l-9.4,20l-21.8,10.6l-3.6,9.5l8.1,30.8l-8,10.7
				l6.8,21.8l-8.2,31.2l-15.3,19.6l1.1,13.2l11.3,35.7l6.7,12.1l-21.5,33.4l-20.7,29.7l13.2,17l12.9,10.1l-4,24.7l-14.7,6.1
				l-17.6-18.2l-18.3-11l-15,34.6l-8.4,35.7l-2.2,23.6l-14.6,11.2 M1512.2,745.7l19.6,15.5l14.9,16.6l21.1,11.7l18.2,17.2l12.5,16.2
				l42.1,23.3l15.4,12.3l23.4,21.4l36.1,16.7l9.7,11.3l-6.9,10 M1557.1,783.6l-2.1,11.4l-5.7,8.4l-0.7,19.1l-9.5,17.2l-11.7,21
				l-11.9,25.3 M1802.7,1262.9l-10.6-5.9l-18.2-3.1l-17.3-34.8l-14.8-22.5l-24-45.3l-43-23.9l-11.8-31.3l-9.4-21.4l-22.1-29.9
				l-8.3-21.4l-4.4-32.3l-3-31.7l-8.1-32.4l-2-21.4l-3.1-21.4l-6-33.9l-6.5-15.7 M1548.6,822.6l15.4,9.7l22.7,7.4l20.4-28.4
				l13.2-18.4l22.5-28.4l18.2-35.8l19.3-31.8l10.9-19.7l21.7-17.9l43.8-19.4l19.8-35.8l16.1-29.1l25.6-28.1l30.7-0.3l32.7,5.6
				l20.9-8.9l32.5-31.8 M1652,670.5l10.3,4.3l8.4,12.5l7.2,13.5l23.4,28.4 M2180.4,979l-6.1-10.1l-0.8-28.2l1.9-14.6l1.9-19.1
				l0-21.3l16.2,1.7l10.3,10.2l-5.2,13.9l-4,9.7 M2234,923.7l-8.7-2.6l-20.9,4.4l-15.6-6.7l-20.5-3l-11.9,10.8l-1.1,13.6"/>
		</g>
	</g>
</g>
</svg>
