<?xml version="1.0" encoding="UTF-8"?>
<svg width="1920px" height="1080px" viewBox="0 0 1920 1080" version="1.1" xmlns="http://www.w3.org/2000/svg" xmlns:xlink="http://www.w3.org/1999/xlink">
    <title>Desktop Copy</title>
    <defs>
        <polygon id="path-1" points="0.0838507901 0.0180414463 2637.73805 0.0180414463 2637.73805 1078.49635 0.0838507901 1078.49635"></polygon>
        <polygon id="path-3" points="0.200546117 0.0212237957 747.839502 0.0212237957 747.839502 291.922598 0.200546117 291.922598"></polygon>
        <polygon id="path-5" points="0.0838260938 0.0670352439 774.882033 0.0670352439 774.882033 470.90753 0.0838260938 470.90753"></polygon>
        <polygon id="path-7" points="0.0185566265 0.00302890979 451.770533 0.00302890979 451.770533 339.496259 0.0185566265 339.496259"></polygon>
        <polygon id="path-9" points="0.0562824732 0.119527531 2050.73752 0.119527531 2050.73752 1065.49645 0.0562824732 1065.49645"></polygon>
        <polygon id="path-11" points="0.744364706 0.945347535 650.296482 0.945347535 650.296482 518.49562 0.744364706 518.49562"></polygon>
        <polygon id="path-13" points="-0.00239452628 0.0203007805 446.983923 0.0203007805 446.983923 402.894442 -0.00239452628 402.894442"></polygon>
        <polygon id="path-15" points="0.264387062 0.746411002 674.963406 0.746411002 674.963406 927.496802 0.264387062 927.496802"></polygon>
        <polygon id="path-17" points="0.0959044017 0.0171951553 1323.85474 0.0171951553 1323.85474 882.680318 0.0959044017 882.680318"></polygon>
        <polygon id="path-19" points="0.0685925552 0.130666218 1896.73798 0.130666218 1896.73798 1026.4967 0.0685925552 1026.4967"></polygon>
    </defs>
    <g id="Desktop-Copy" stroke="none" stroke-width="1" fill="none" fill-rule="evenodd" opacity="0.563735235">
        <g id="Group-41-Copy-2" transform="translate(-405.000000, 0.000000)">
            <g id="Group-3">
                <mask id="mask-2" fill="white">
                    <use xlink:href="#path-1"></use>
                </mask>
                <g id="Clip-2"></g>
                <path d="M-544.800822,772.901762 L-522.970451,744.109494 L-491.865453,708.68577 L-481.435144,664.590423 L-467.705489,640.820105 L-447.234959,597.817835 L-418.330133,588.082333 L-412.245483,579.127861 L-362.082659,559.332036 L-345.784617,536.992389 L-275.074704,523.559768 L-219.902707,525.05066 L-138.248443,517.134519 L-64.2373611,524.034226 L90.7918126,501.926333 L112.727908,511.860742 L170.521154,462.115702 L196.055542,454.433141 L219.539232,433.274163 L265.051983,429.958436 L293.858375,407.277544 L290.8999,394.425221 L347.140083,365.674924 L385.109909,318.369691 L421.377198,285.24891 L434.722234,265.199433 L402.12615,166.379068 L387.959013,108.064596 L365.240917,65.1827663 L407.000433,0.924802646 L435.498765,-55.5648325 L478.703796,-97.1601531 L516.854083,-148.844994 M-167.588928,519.973965 L-115.293378,487.838596 L-103.133191,469.927827 L-89.4910317,458.444131 L-102.577223,451.736033 L-104.443815,428.837986 L-77.764681,425.155466 L-76.6800892,415.104267 L-89.4472834,385.598488 L-37.8990988,307.710821 L-25.9321328,350.797033 L-16.9017673,344.598064 L-12.4540297,307.271036 L8.16961893,281.163102 L-2.10757138,275.453188 L-19.0727736,292.938771 L-38.8652058,289.243477 L-35.5421625,278.194093 L-10.6749347,265.651992 L34.3966878,180.251474 L52.0618618,136.251019 L70.5491382,119.046462 L83.5952274,75.2814108 L94.6270749,68.5130927 L89.2879669,49.8523158 L117.786299,-1.58434738 L177.591963,-41.8128655 L224.161963,-95.5488225 L245.788175,-114.37201 L245.678805,-132.370371 L273.73054,-147.626003 L280.414906,-180.911019 L333.415897,-215.944228 L344.671954,-238.283875 L403.425838,-279.649266 L422.760736,-311.514559 L477.110631,-331.784842 L512.876639,-332.669887 L585.879688,-333.054928 L627.249116,-342.034948 L708.675525,-339.425432 L725.128508,-344.863444 L782.261884,-322.667959 L910.099705,-329.043937 L909.108078,-316.142344 L890.236182,-305.31924 L946.372463,-280.315331 L962.907474,-308.133137 L1019.60155,-301.315549 L1060.08872,-284.441286 L1067.77018,-253.833306 L1075.89095,-264.457503 L1098.49238,-254.716527 L1110.13123,-270.672896 L1162.37028,-246.710969 L1268.9738,-212.743465 L1351.56318,-180.905544 L1392.71204,-164.219241 L1453.04086,-134.647767 L1516.68726,-116.125678 L1577.77803,-88.9356155 L1676.81492,-62.5320578 L1722.38783,-51.8038447 L1743.65676,-36.632155 L1795.41822,-11.8125553 L1813.5464,-0.0679083474 L1825.43134,-11.4092665 L1876.04622,4.36826891 L1909.38785,8.86284092 L1946.33324,-4.25408302 L1983.14373,-3.99495625 L2010.29316,-18.6283192 L2087.36662,19.1184214 L2153.62515,27.8812857 L2197.4463,53.8906787 L2221.79402,53.3997977 L2254.8768,89.7067425 L2303.44828,107.143054 L2328.03844,111.269009 L2345.50128,123.205264 L2363.85366,114.334734 L2327.88532,94.3673746 L2360.69832,95.7724986 L2402.64559,93.838172 L2444.09158,124.135931 L2462.41844,146.641638 L2536.58811,180.539798 L2476.13899,174.43937 L2513.5018,213.122252 L2554.56682,247.135377 L2574.97172,246.693767 L2604.62027,276.048085 L2625.31683,284.175906 L2627.86699,332.119833 L2650.08927,345.579826 L2651.19756,365.811787 L2690.01501,375.591085 L2714.82208,415.711938 L2746.92782,423.449244 L2755.8871,444.681215 L2783.98805,438.420202 L2830.24452,474.19247 L2855.45991,489.316713 L2840.30661,510.608904 L2846.20716,521.172882 L2882.21013,514.816977 L2936.61107,575.29023 L2933.86769,593.388957 L2953.36117,588.518469 L2970.92792,608.35809 L2985.57264,609.202989 L3009.12924,627.329089 L3015.32691,651.511821 L3024.77653,630.411238 L3041.94589,628.734213 L3053.47355,651.389557 L3069.3651,659.090367 L3096.74785,644.026342 L3123.86993,660.767391 L3155.98843,616.942121 L3173.95984,611.785133 L3152.77476,579.282972 L3200.71189,570.585802 L3206.53041,593.430929 L3219.37416,600.566039 L3227.42384,617.367307 L3247.40402,626.783463 L3252.32934,660.342204 L3242.30188,669.349597 L3247.96728,680.342411 L3270.12212,664.615971 L3273.21913,674.181763 L3258.45045,711.950402 L3266.98683,743.03284 L3263.78591,787.223078 L3256.77708,828.174232 L3244.23045,844.74922 L3267.15817,851.875206 L3250.39713,890.213194 L3235.24383,911.50356 L3232.21245,936.173523 L3250.44999,965.916532 L3270.43018,908.625793 L3305.47981,898.932262 L3267.98939,950.43097 L3270.90412,969.422042 L3252.23638,1001.10303 L3249.96694,1023.38793 L3236.37217,1033.77307 L3228.77456,1052.53787 L3213.8473,1063.30622 L3218.71429,1077.78083 L3191.7034,1084.07834 L3181.77437,1106.04024 L3161.13979,1111.95819 L3158.34537,1126.10067 L3178.31462,1120.36886 L3179.27708,1133.796 L3160.68772,1148.14287 L3128.4635,1173.96978 L3105.60322,1201.0759 L3087.0722,1229.46488 L3062.63151,1232.15286 L3043.44427,1270.82479 L2975.86964,1282.62966 L2942.21449,1305.98574 L2916.77489,1311.4785 L2907.70077,1323.81804 L2852.63268,1340.32734 L2828.58755,1369.57946 L2747.69342,1380.15804 L2685.59644,1397.24763 L2625.81811,1406.09444 L2589.19902,1411.55253 L2564.38101,1422.99607 L2520.36116,1447.87954 L2481.84631,1461.80852 L2468.58877,1479.67549 L2430.55879,1502.84179 L2425.33452,1517.31639 L2398.99261,1523.42777 L2348.88994,1562.31686 L2318.73829,1565.19463 L2308.91499,1595.0526 L2263.08142,1616.13128 L2231.68659,1607.10747 L2208.37789,1603.69685 L2206.49307,1627.31206 L2187.77612,1660.08247 L2207.9477,1670.15921 L2229.96583,1667.81065 L2227.2662,1684.81083 L2211.10669,1693.77442 L2210.92987,1713.2947 L2186.31055,1740.54498 L2182.67945,1779.45049 L2190.11118,1805.43616 L2172.63558,1834.96931 L2143.25499,1855.65383 L2120.56424,1853.15016 L2092.42501,1875.63944 M344.671954,-238.283875 L386.834318,-204.221479 L431.366379,-179.493121 L485.876684,-172.770424 L589.118881,-108.722316 L635.116508,-96.4940878 L704.955102,-97.2331465 L727.204726,-113.890253 L748.435382,-99.1583489 L785.661487,-120.107471 L871.265852,-76.78403 L897.449173,-77.8004639 L916.479657,-49.9972567 L945.513904,-33.5043854 M774.850204,-325.547551 L776.310301,-282.11462 L787.650209,-232.09403 L788.200708,-214.13399 L801.700685,-187.717659 L807.575709,-159.651675 L818.716927,-139.596723 L830.596396,-132.994465 L820.286395,-79.4428166 L814.054094,-45.5592546 L826.137722,-14.1045498 L846.012182,0.627354315 L851.092446,36.7353919 L829.278481,88.0899374 L822.369905,155.159974 L774.762707,225.107777 L744.447001,289.15041 L705.959488,365.27711 L683.841108,375.895833 L671.196044,388.074791 L636.290419,393.806602 L607.356428,415.40719 L601.350159,434.234027 L634.961566,458.801799 L658.616603,506.649009 L677.812965,530.605462 L645.072878,580.376049 L623.765663,585.533037 L610.311257,609.821609 L579.415886,609.655549 L531.506097,649.526399 L486.301407,707.145608 L464.89029,741.791952 L443.395322,737.979868 L433.393381,776.002159 L373.80828,791.66838 L367.368175,807.296278 L326.377899,824.416893 L305.307653,874.023246 L272.491006,898.640289 L258.291057,940.242908 L202.032646,965.876385 L192.958532,982.259766 L180.428307,984.902129 L177.695865,1015.13967 L190.986215,1028.4336 L182.914665,1041.67279 L190.754714,1054.15467 L209.422452,1130.98758 L208.766229,1180.114 L226.25641,1189.82213 L231.159858,1210.27125 M1048.53918,-139.07847 L1025.74453,-141.096739 L1005.61122,-162.367032 L989.812641,-158.102389 L975.680137,-165.95101 L938.911566,-205.706896 L946.372463,-280.315331 L975.034851,-270.149168 L1018.56435,-257.749405 L1030.99067,-240.765652 L1058.28046,-233.176158 L1067.77018,-253.833306 M738.225637,-106.240539 L759.868255,-128.127627 L818.716927,-139.596723 L856.883619,-140.262788 L922.717426,-103.707666 L949.387446,-69.9846896 L963.222826,-43.5446352 M704.955102,-97.2331465 L717.310333,-82.3881025 L729.514269,-75.6106602 L756.155123,-33.4934364 L791.022469,-6.98403825 L838.551284,19.4049207 L865.022614,23.171383 L892.235841,17.2589131 L929.68251,18.6439639 L976.897797,5.69127528 M1973.71234,2171.27206 L1991.91708,2158.12229 L2004.32517,2152.39595 L2027.1253,2111.24589 L2043.59469,2095.16178 L2048.72052,2075.30939 L2039.57896,2066.0301 L2034.77942,2039.82544 L2021.09169,2052.40039 L1980.20896,2039.79077 L1980.50061,2055.93145 L1945.76998,2068.59582 L1940.33791,2057.17051 L1951.67052,2045.80908 L1931.04687,2036.03891 L1911.15054,2040.12289 L1890.59251,2028.71037 L1883.94825,2014.9292 L1852.49691,2027.73955 L1829.53638,2041.89116 L1818.82353,2030.90382 L1832.01544,2014.68102 L1826.96799,2007.11343 L1849.26319,1995.67353 L1844.76077,1985.60773 L1825.57534,1988.40338 L1819.28106,1966.41045 L1827.48021,1959.19505 L1809.4851,1934.06888 L1854.0281,1868.83098 L1892.76899,1877.72888 L1915.25011,1890.21076 L1891.58961,1920.79867 L1896.73185,1931.21848 L1950.49843,1896.32944 L2003.47755,1856.80165 L2047.8328,1834.34522 L2063.11734,1853.75783 L2077.31729,1859.96227 L2120.88324,1832.86163 L2155.48627,1831.05139 L2162.31464,1802.05474 L2167.28554,1770.34273 L2194.16883,1756.67836 L2203.85906,1737.67634 L2193.99201,1706.97346 L2230.75329,1639.10597 L2279.16072,1591.14927 L2303.266,1573.42099 L2316.21001,1516.70507 L2317.32924,1482.85253 L2283.24936,1418.52888 L2253.22895,1236.2186 L2238.28711,1185.87866 L2164.44555,1082.66226 L2131.31537,1042.40637 L2122.08632,1004.4881 L2129.18264,966.445734 M365.075038,-221.801953 L313.067497,-145.354082 L256.737995,-43.681498 L230.323173,21.4177153 L264.6783,40.4909052 L257.168186,54.0494395 L337.911028,90.7541985 L319.875817,113.982541 L331.727944,120.557426 L294.833596,145.866082 L301.485151,159.16549 L331.387072,175.767851 L319.496665,197.229752 L363.94123,211.567491 L378.427365,224.040248 L390.857333,257.53147 L415.299839,260.026022 L449.868238,237.856084 L475.326067,247.558739 L485.794656,252.633609 L494.269055,365.171269 L514.083361,469.238039 L491.635046,453.821821 L465.402509,486.524714 L493.74043,505.953747 L470.883798,533.886517 L504.495205,558.45429 L474.764632,612.115428 L534.856483,604.856229 L548.223392,687.26584 L556.158229,775.478431 L563.635532,803.26339 L541.037744,838.725436 L523.252262,856.178171 L536.497042,884.211307 L512.083702,921.620453 L513.244853,975.445827 L523.091852,1004.29102 L523.124663,1028.19637 L558.670107,1047.9338 L547.408581,1074.91766 L528.294247,1069.47417 L519.858128,1111.32314 L544.807384,1122.22289 L542.647315,1166.07554 L570.584211,1235.50691 L591.796638,1319.72493 L635.264158,1425.04354 M196.055542,454.433141 L180.457473,436.885514 L176.952145,403.91802 L163.789394,401.038428 L148.477511,367.423117 L189.119624,328.68914 L218.525731,350.185713 L240.257669,334.928256 L249.84947,340.251304 L258.617346,331.0888 L249.617969,312.059406 L269.058592,296.261798 L266.776393,240.337862 L244.191365,222.626 L258.467873,206.182399 L300.31124,220.551161 L332.945603,247.533192 L363.241258,288.730698 L406.389781,298.935183 M332.945603,247.533192 L345.532336,236.797679 L369.417051,245.629887 L406.94028,225.837712 L427.906623,187.997905 L498.687627,149.74386 L537.485023,151.344241 L553.281782,160.11258 L625.468198,147.013904 L733.725037,107.418604 L746.803937,78.4876484 L794.416603,59.129784 L850.255761,63.5422384 L898.369709,39.2938125 L925.438931,41.0310567 M26.8537624,1090.30833 L34.0995643,1070.57637 L21.5693398,1034.076 L-11.3803751,1006.17607 L-78.3042426,1000.46798 L-96.0149877,959.18471 L-72.9997687,893.676734 L-90.6139031,880.202142 L-93.0164106,855.23473 L-167.116812,818.520847 L-190.808306,812.01713 L-228.03988,797.989613 L-267.954678,806.10831 L-305.472438,832.548364 L-323.524055,829.172417 L-361.140249,803.852812 L-387.522259,806.192252 L-412.604583,784.883638 L-440.556061,783.394571 L-498.803195,739.222582 M-374.303,867.568799 L-356.484707,854.446401 L-336.858154,850.574098 L-323.524055,829.172417 M-532.117478,776.874431 L-515.923339,755.636985 L-487.596354,728.470646 L-449.526273,675.749298 L-431.678815,656.849467 L-422.803391,631.504315 L-412.795981,600.128078 L-385.103346,587.436341 L-365.25076,568.914252 L-327.727532,549.127551 L-283.554571,542.634783 L-259.496686,533.831772 L-187.933682,521.948438 M-278.485244,540.782574 L-237.225187,566.879559 L-206.187634,590.761193 L-176.185457,571.229969 L-159.346031,548.819153 L-143.399798,546.671321 L-138.248443,517.134519 M-64.2373611,524.034226 L-58.0123514,561.682425 L-38.6209448,582.609649 L-26.9729763,573.569409 L-14.5703508,585.804937 L6.43974068,589.168111 L15.6852017,604.370823 M103.221781,507.559603 L86.2292359,526.373666 L90.4454724,542.746098 L66.2727479,567.731758 L65.3358065,576.080384 L25.1785694,589.969214 L6.64754481,618.088118 L-20.1026801,638.404021 L-38.781355,670.623333 M112.727908,511.860742 L110.237905,532.318983 L123.604814,557.467053 L149.968596,563.24266 L159.711694,577.518355 L163.051142,600.792319 L176.715175,605.425578 L185.756478,630.383865 L199.477019,620.272447 L214.050651,646.093882 L232.829582,643.966123 L235.97581,664.915244 L250.461945,677.386176 L267.994052,659.055695 L281.537777,666.574021 L323.514212,650.739915 L378.250549,592.890777 M265.051983,429.958436 L271.796503,448.453152 L285.713911,460.617512 L297.263446,481.059329 L326.33415,476.519136 L352.293261,490.931694 L365.477887,527.056155 L365.417733,548.465135 L355.731144,565.963491 L360.999161,577.75011 L390.78442,603.890891 L417.92291,604.182865 L429.031317,628.079097 L439.625682,636.914955 L459.347023,695.877243 L475.705219,704.963104 L481.585711,714.773424 M347.140083,365.674924 L373.341632,358.592734 L398.735662,323.205507 L448.960462,276.496995 L499.681076,218.248217 L539.572178,183.523406 L553.352873,171.972192 L553.281782,160.11258 M394.091057,20.795446 L418.032281,54.0019937 L442.997942,84.8472032 L463.953348,114.947879 L515.829645,150.448246 M553.352873,171.972192 L566.836445,187.583667 L579.829672,214.739057 L603.780009,235.423578 L628.042053,242.246641 L633.501469,256.356276 L629.50215,268.905676 L674.606584,341.961175 L696.493463,357.063521 L724.534261,403.657069 L748.634072,454.703217 L768.838467,495.468237 L797.05608,517.784161 L813.702285,574.297519 L838.602324,638.548183 L868.449559,681.888048 L886.874859,713.892028 L890.846835,755.983704 L922.558839,845.234627 L944.89596,883.483198 L957.584772,931.158873 L995.516318,955.909129 L1021.23664,989.391227 L1022.34492,1051.30793 L1041.11656,1105.31031 L1041.01266,1128.14814 L1092.35487,1156.65391 L1112.12542,1200.86969 L1123.18279,1239.50513 L1119.24363,1338.50068 L1123.46533,1374.82587 L1145.9337,1423.49243 L1163.95797,1470.42357 L1164.11291,1518.52443 L1176.91292,1543.35681 L1179.40292,1576.31153 M610.311257,609.821609 L607.203309,642.068293 L663.438023,677.723771 L700.884693,639.429579 L724.071259,630.882046 L746.765658,647.17601 L748.655946,663.74005 L775.048894,681.346071 L808.31396,659.935266 L830.182611,655.084851 L838.602324,638.548183" id="Stroke-1" stroke="#878482" stroke-width="0.316" mask="url(#mask-2)"></path>
            </g>
            <g id="Group-6" transform="translate(996.000000, 0.000000)">
                <mask id="mask-4" fill="white">
                    <use xlink:href="#path-3"></use>
                </mask>
                <g id="Clip-5"></g>
                <polyline id="Stroke-4" stroke="#B34918" stroke-width="0.316" mask="url(#mask-4)" points="0.200546117 -14.058487 15.3279733 -32.1772673 32.5725121 -71.412689 43.6386529 -114.099307 61.840716 -168.43554 91.7970267 -236.024513 101.971177 -255.159642 130.777002 -249.224242 148.682342 -241.499266 175.678701 -222.530482 209.84557 -207.435155 228.662925 -196.953608 262.487561 -199.456091 294.089502 -185.784748 312.710255 -186.090018 325.112561 -179.176657 343.371056 -160.582606 351.113167 -157.396465 366.602852 -156.069363 390.12591 -142.968344 417.777609 -144.416092 465.280643 -144.355769 501.537318 -132.022495 530.867415 -106.140351 575.823726 -82.2269247 614.972998 -71.0873114 649.711468 -59.0410279 715.048847 -35.5699687 737.099211 -28.9052115 747.839502 -18.9921621 719.689017 9.70139055 682.083434 34.2454647 662.659891 48.1416479 625.842536 115.818363 606.058556 153.662704 591.384405 158.965628 572.026396 191.998768 569.428701 211.888845 558.814017 236.169692 535.15807 255.712457 505.285498 267.261534 475.2946 279.029967 457.356493 291.922598"></polyline>
            </g>
            <g id="Group-9" transform="translate(0.000000, 526.000000)">
                <mask id="mask-6" fill="white">
                    <use xlink:href="#path-5"></use>
                </mask>
                <g id="Clip-8"></g>
                <path d="M-165.049023,31.3050905 L-142.128053,44.0550561 L-134.228355,71.2709422 L-118.602078,79.9603626 L-105.536141,102.384732 L-57.1611956,126.768105 L-19.8367162,164.93394 L-27.2006563,178.244926 L-10.0090178,208.019211 L-0.810015189,238.959396 L20.2649582,253.492931 L50.8924616,257.332357 L61.7916761,276.587967 L75.0617112,283.974431 L86.5203738,315.888635 L108.284179,329.676579 L121.971522,355.541996 L139.759055,362.345511 L168.919602,346.56567 L173.072638,339.051285 L235.114881,336.191361 L253.52382,346.424958 L256.519692,368.344957 L272.450295,373.980745 M-211.749269,61.267601 L-218.336906,73.1879142 L-204.203098,102.105136 L-203.574402,109.61221 L-193.296594,119.118491 L-194.745328,141.473418 L-187.275694,159.10079 L-145.858314,182.13552 L-136.123554,181.234598 L-131.728151,201.789509 L-146.089747,210.643398 L-148.110685,231.413945 L-147.808182,254.741064 L-167.042626,293.738379 M-424.802398,112.526958 L-373.695815,149.300293 L-370.187875,176.30237 L-339.208667,187.851715 L-285.379558,216.531371 L-257.815352,222.110509 L-229.216075,206.08762 L-213.026706,207.936977 L-205.722902,194.735637 L-205.562539,175.456271 L-187.275694,159.10079 M-415.197021,119.440118 L-396.726123,102.06676 L-370.760079,102.932961 L-340.431434,73.9060934 L-290.01915,59.4218986 L-259.843579,44.3419623 L-232.753172,45.0820706 L-218.078139,21.9596234 L-208.119234,0.0670352439 M-92.9658715,330.508059 L-31.9769213,312.919064 L-15.6508784,306.979923 L-1.2400795,262.580731 L10.7579858,246.936119 M-95.9617432,434.625773 L-121.774713,440.747657 L-128.655742,460.653831 L-138.454284,470.90753 M774.882033,156.345028 L772.188664,166.468979 L758.038455,170.805466 L760.445722,195.303967 L748.690023,216.5533 L748.905056,225.034394" id="Stroke-7" stroke="#878482" stroke-width="0.316" mask="url(#mask-6)"></path>
            </g>
            <g id="Group-12" transform="translate(559.000000, 739.000000)">
                <mask id="mask-8" fill="white">
                    <use xlink:href="#path-7"></use>
                </mask>
                <g id="Clip-11"></g>
                <polyline id="Stroke-10" stroke="#B34918" stroke-width="0.316" mask="url(#mask-8)" points="332.365918 16.858271 316.923894 14.9929697 302.61528 23.4379296 283.372786 12.7297861 268.365569 11.8208624 259.065424 6.6447426 247.29834 8.2180202 236.322641 0.00302890979 220.19293 4.91267712 215.3864 2.23153466 184.233099 13.0838649 157.47881 51.6364667 132.627484 57.1538892 114.844051 89.3348993 101.816207 94.7081351 90.4329904 115.303106 83.2886892 136.571556 71.1522916 144.124018 68.496147 164.105739 43.364653 183.779009 12.2768458 231.694621 0.0185566265 272.846233 24.0948699 274.04353 89.5797494 320.175972 99.1982675 325.527306 116.525063 354.110949 139.293316 320.495373 173.190087 310.752733 196.13299 323.099859 209.914014 323.200242 230.146195 333.621838 254.288002 325.598487 284.324267 298.555269 311.880858 291.17437 344.398617 248.261489 341.435014 236.93097 355.099605 220.555742 394.838075 216.164436 434.427364 246.193597 451.770533 236.429055"></polyline>
            </g>
            <g id="Group-15" transform="translate(587.000000, 13.000000)">
                <mask id="mask-10" fill="white">
                    <use xlink:href="#path-9"></use>
                </mask>
                <g id="Clip-14"></g>
                <path d="M89.8512348,517.706836 L135.930464,509.120974 L163.940551,507.852982 L184.137941,508.551746 L209.149878,504.8919 L222.098092,490.104733 L245.543478,487.981074 L279.478741,486.636454 L306.919836,483.36704 L332.581008,487.099864 L348.281173,485.300957 L390.049194,512.20247 M222.098092,490.104733 L219.539452,457.583914 L223.234252,432.734907 L211.613686,400.648307 L244.148354,332.114672 L255.509956,297.227541 L285.624583,242.906371 L306.848712,231.149616 L312.759298,208.365885 L319.351945,196.475946 L340.928047,180.291251 L348.303058,161.681862 L362.487735,133.827986 L382.442574,147.845234 L402.260636,161.35711 L433.566135,179.152794 L447.132581,184.994683 L451.151998,210.33994 L433.423887,228.666539 L424.515151,240.954209 L415.854437,258.84294 L449.536207,305.698462 L456.333108,327.544425 L445.644448,346.823387 L462.497187,362.650489 L469.244848,377.959448 M184.254657,217.75268 L215.571098,235.128741 L242.18059,274.285084 L272.990044,296.001511 L323.756162,324.172841 L339.428972,326.98067 L362.795939,322.71693 L373.936874,327.630174 L385.568382,374.854235 L398.077087,399.274496 L400.849099,440.499766 L415.827082,475.83936 M373.936874,327.630174 L389.615155,295.561818 L394.156149,262.362304 L415.854437,258.84294 M0.0562824732,1291.79173 L22.0737174,1285.29121 L90.7557861,1281.71712 L102.655377,1252.66458 L123.912332,1273.7096 L135.85934,1268.56466 L160.776445,1285.75462 L138.737126,1319.44856 L134.404033,1329.54324 L163.103476,1346.72774 L176.76293,1331.19072 L179.606066,1318.47796 L166.75086,1303.78201 L191.16645,1259.74527 L202.500697,1240.81295 L233.525347,1265.17665 L240.493675,1271.56405 L237.637773,1276.70535 L266.56153,1304.10129 L282.070207,1276.13612 L304.488855,1294.0431 L314.825542,1271.62061 L270.989454,1250.65586 L288.177752,1237.08012 L311.759915,1224.10464 L332.96216,1235.86687 L346.902462,1217.54574 L370.772768,1213.13422 L378.373917,1212.31322 L388.230973,1220.29883 L394.163443,1235.35967 L384.186024,1253.35969 L416.945005,1252.62444 L440.550876,1223.68866 L447.464493,1208.19179 L466.702621,1215.9238 L473.472166,1203.70911 L517.021934,1223.67224 L548.97302,1184.23493 L565.234882,1169.30181 L575.686462,1167.11795 L593.834022,1142.71958 L622.737718,1139.84607 L642.346056,1162.07152 L667.547657,1176.47555 L703.926668,1141.17974 L717.359984,1111.6492 L766.88599,1107.18842 L783.775203,1119.92125 L792.58546,1110.09294 L806.719074,1117.94172 L833.875673,1109.89043 L879.756119,1144.58964 L908.244014,1112.90624 L898.636804,1099.16813 L974.110302,1099.4345 L983.651859,1114.81462 L1000.88393,1111.76961 L1005.30091,1096.98609 L1089.48254,1143.69566 L1124.30594,1140.74005 L1130.72898,1132.9533 L1189.84578,1165.75508 L1231.68493,1191.0748 L1265.75332,1175.09079 L1299.90378,1168.82198 L1333.08403,1162.01496 L1339.50161,1150.44612 L1354.85345,1156.85906 L1395.41418,1142.80168 L1413.34837,1115.76333 L1436.90865,1126.3123 L1516.43804,1104.87136 L1562.56833,1091.38138 L1618.30036,1076.49022 L1678.88341,1059.67244 L1757.36053,1012.84976 L1812.14972,977.681665 L1829.62433,961.318174 L1899.93314,924.677748 L1947.34184,896.76184 L1995.49825,870.522602 L2020.64696,855.478188 L2057.75363,791.58048 L2067.86965,766.516188 L2095.31074,709.44922 L2152.54185,597.882285 L2210.0611,487.31515 L2230.94784,451.80953 M982.714481,1808.83535 L971.028262,1787.01858 L948.067978,1766.29283 L882.920225,1689.79729 L806.54947,1637.33889 L685.74081,1570.30495 L605.157326,1567.13405 L583.851131,1560.847 L561.127928,1569.25224 L520.665671,1630.86391 L518.147152,1651.31964 L510.467584,1671.99431 L484.149883,1693.21631 L427.237924,1693.90595 L350.932822,1733.84316 M552.175423,1397.37447 L532.092925,1390.48717 L504.695599,1404.28366 L491.813038,1405.548 L477.617418,1414.48233 L448.721017,1428.71122 L439.343592,1440.31837 L455.490562,1462.72626 L471.714127,1441.04815 L485.335283,1426.32666 L483.476941,1410.7933 M2640.4725,988.92575 L2639.18862,993.983125 L2626.63615,1010.5619 L2611.74205,1043.48592 L2582.88213,1060.67407 L2565.02636,1089.85432 L2542.59677,1110.61291 L2508.57761,1152.26692 L2472.99556,1195.98439 L2431.09258,1241.24899 L2408.44233,1251.79249 L2371.12776,1266.81683 L2336.74022,1286.39865 L2279.58024,1303.86411 L2225.42935,1331.82016 L2179.90635,1350.27264 L2102.04746,1363.39226 L2065.76875,1381.08943 L2020.63055,1386.72515 L1963.54352,1402.54678 L1909.71177,1430.6798 L1855.49523,1471.62775 L1784.01379,1516.44719 L1746.41838,1539.30025 L1707.48803,1529.1855 L1640.32327,1520.50112 L1612.06516,1532.56073 L1576.51411,1551.22303 L1528.26286,1582.17299 L1494.76893,1583.4793 L1478.05479,1597.46553 L1426.50631,1608.09295 L1366.82051,1621.76903 L1291.07893,1629.06136 L1229.4965,1679.51104 L1181.43856,1711.12876 L1128.08645,1730.56098 L1057.71382,1763.52514 L1014.72028,1789.54362 L987.31748,1797.03846 L975.988705,1826.05816 L949.672828,1867.21592 L940.554367,1908.67107 L862.777546,1985.37642 L781.296806,2018.24023 L766.422773,2175.23962 M968.216129,1838.21811 L958.134759,1798.1459 L973.001497,1775.50265 L997.548393,1776.30906 L1016.87588,1780.09844 L1041.78205,1773.171 M2626.63615,1010.5619 L2637.95945,1022.72733 L2648.85783,1044.74297 L2659.82187,1057.55426 L2669.28683,1067.00491 L2659.72886,1075.15108 L2643.03661,1088.5845 L2621.45321,1104.77102 L2599.74581,1135.60057 L2584.29366,1127.02566 L2569.26644,1129.19128 L2556.04832,1111.35181 L2547.37119,1106.19591 M2540.46852,1113.21457 L2521.7082,1095.24192 L2498.11509,1043.0663 L2487.78388,1015.47514 L2483.88847,1002.80799 M2648.64811,1003.44107 L2603.35672,1005.20532 L2555.72188,1003.57426 L2528.63823,1002.41573 L2501.37403,1001.57831 L2449.87479,1002.00706 L2347.95775,1000.93793 L2277.79302,995.632428 L2243.14105,994.479375 L2215.52306,994.282335 L2163.45118,985.143665 L2102.63104,972.834102 L2048.068,971.978435 L2017.69258,966.899167 L1976.13976,946.361334 L1953.65363,937.67148 L1917.13238,922.450094 L1862.76629,897.748867 L1852.48614,892.047462 L1770.18838,882.107859 L1710.29469,867.366304 L1658.96687,852.33831 L1594.04526,839.853599 L1524.66289,827.835948 L1468.73755,820.341108 L1418.01702,806.493533 L1382.56445,781.775886 L1339.7934,751.31852 L1264.7667,729.025567 L1176.99605,708.487735 L1149.58049,695.798686 L1113.23065,661.336652 L1061.13142,618.139152 L896.557795,478.490285 L799.575672,396.523226 L757.911602,370.884232 L729.312462,347.447349 L704.521191,311.835911 L691.709754,265.217568 L670.387146,240.782711 L619.373006,210.792404 L596.815759,203.739081 L576.310164,175.553154 L549.463593,157.292236 L522.049853,148.385271 L504.232381,138.084427 L498.797778,115.307995 L479.917094,89.4920292 L470.820518,73.3128077 L452.040136,58.6861931 L441.349653,31.7408928 L438.209255,22.0074527 L427.646431,13.7682371 L413.649594,0.119527531 M2423.89447,1244.59686 L2423.05557,1229.22039 L2378.39882,1204.44254 L2353.50907,1182.64766 L2310.1362,1158.58134 L2298.75819,1116.96017 L2296.54787,1072.44359 L2287.64461,1046.07299 L2276.77905,1023.22906 L2257.58469,994.959206 M2475.24964,1001.79724 L2462.44367,1011.92294 L2368.70225,1015.81267 L2323.95067,1012.41372 L2274.05628,1009.94889 L2248.83097,1015.28723 L2227.05609,1005.30566 L2167.72409,998.653717 L2103.78909,991.970757 L2059.63203,982.180759 L2035.79637,978.199809 L1984.04364,969.243585 L1946.52665,950.524729 L1909.79566,940.234832 L1860.03258,915.566445 L1796.69393,923.712614 L1764.29603,931.377128 L1733.17655,932.183534 L1698.00118,939.563434 L1684.14841,936.502007 L1642.86914,948.061722 L1618.93501,948.793326 L1598.6592,955.054838 L1577.3913,956.284517 L1554.23953,963.188236 L1520.02707,936.226515 L1497.03943,923.889585 L1467.71263,886.603303 L1439.43264,863.34704 L1420.43706,846.078622 L1393.84946,838.386742 M1444.76876,867.731194 L1471.15212,848.578119 L1490.86988,833.4662 L1506.94025,825.460514 M1541.49375,830.753243 L1551.38363,850.121603 L1577.08857,864.385152 L1596.23369,850.314995 L1601.26161,841.24383 M1642.86914,948.061722 L1640.71536,929.216979 L1650.87333,910.89038 L1674.58862,887.066713 L1688.30461,860.931469 L1694.53434,832.143474 L1700.23338,821.85905 L1732.38325,816.161293 L1737.19597,807.480561 L1738.44155,787.296672 L1740.6464,771.706748 L1735.25009,758.696596 L1771.79323,718.940008 L1804.80206,663.564306 L1816.26944,628.737382 L1805.28169,601.064126 L1801.70908,567.594593 L1793.57906,550.437466 L1799.80697,541.557869 M1642.19802,849.112683 L1645.27824,876.267795 L1643.54756,897.582842 L1647.84235,916.356432 M1898.47783,934.628297 L1885.30895,965.454202 L1864.05746,990.653504 L1842.13304,1036.7683 L1837.85101,1070.25425 L1829.53133,1085.25488 L1798.03799,1095.57762 L1754.56664,1115.39479 L1717.79736,1129.17486 L1700.20055,1145.75181 L1660.29999,1171.2485 L1637.80293,1184.53962 L1627.38964,1197.25603 L1618.9733,1204.35314 L1619.93804,1222.82205 L1613.19585,1242.05905 L1600.9297,1257.10894 M1395.41418,1142.80168 L1407.39949,1162.61703 L1438.79982,1156.50147 L1471.29072,1150.43518 L1494.80723,1169.64846 L1536.92357,1174.52521 L1591.50303,1185.19459 L1618.9733,1204.35314 M987.31748,1797.03846 L987.219001,1753.27355 L1008.3866,1683.75654 L1018.61751,1613.77976 L1020.0947,1581.8154 L1028.37061,1547.18187 L1021.1105,1501.68374 L1018.96583,1467.14873 L1003.07236,1397.80504 L978.817251,1344.55847 L970.608813,1310.8627 L975.178985,1245.03108 L977.004501,1202.3353 L972.416092,1176.24932 L978.359504,1165.53432 L1004.90334,1160.09199 L1030.08488,1176.30405 L1057.44938,1182.52178 L1113.40208,1176.58137 L1130.8767,1198.60795 L1144.73494,1213.01746 L1162.70013,1254.37408 L1175.57904,1291.77531 L1192.05428,1316.60972 L1236.41012,1325.52581 L1260.92418,1341.93491 L1287.39508,1363.90676 L1300.91775,1380.93617 L1305.84537,1419.53971 L1313.75655,1429.52675 L1306.86664,1441.95855 L1315.79543,1494.54649 L1323.0519,1519.86621 L1343.1344,1532.13198 L1358.09415,1561.73003 L1371.10984,1595.84907 L1375.82408,1619.70923 M1113.40208,1176.58137 L1120.04944,1159.53553 L1143.34164,1122.57947 L1174.3444,1064.13322 L1207.99882,979.68856 L1236.7402,917.741189 L1265.68767,876.641807 L1283.57079,863.589692 L1314.50244,868.419011 L1328.20566,865.932286 L1340.9788,895.437289 L1349.03222,917.283252 L1344.95262,924.644907 L1353.03887,936.319562 L1353.16653,974.494351 L1349.99148,997.391197 L1341.67727,1012.39365 L1356.92516,1045.50924 L1368.22111,1073.63496 L1377.69701,1082.81194 L1378.00522,1111.5598 L1369.68736,1126.56225 L1338.33809,1136.63139 L1323.58625,1137.97236 L1308.68486,1122.41892 L1274.5727,1130.38812 L1250.6878,1124.98228 L1193.94727,1097.98407 L1164.77367,1082.17156 M1369.68736,1126.56225 L1389.05862,1135.07148 L1395.41418,1142.80168 M535.422987,1226.43628 L550.918899,1198.48754 L566.316332,1186.29291 L607.280104,1182.12405 L647.879138,1201.85 L705.319968,1212.42268 L764.558959,1211.66736 L811.907478,1217.20274 L834.789343,1210.28808 L891.183374,1158.0778 L911.448241,1150.82743 L942.709971,1153.04231 L967.83133,1151.85277 L978.359504,1165.53432" id="Stroke-13" stroke="#878482" stroke-width="0.316" mask="url(#mask-10)"></path>
            </g>
            <g id="Group-18" transform="translate(842.000000, 561.000000)">
                <mask id="mask-12" fill="white">
                    <use xlink:href="#path-11"></use>
                </mask>
                <g id="Clip-17"></g>
                <path d="M250.212306,596.808517 L270.303953,560.505929 L285.709129,537.690031 L287.518071,497.990186 L290.422953,473.502157 L294.881482,453.803914 L297.2466,434.348724 L305.448835,419.53895 L310.448953,394.807869 L314.130659,383.097474 L316.831306,366.070985 L323.027659,346.782094 L327.1616,334.761031 L338.803012,313.721429 L358.591953,302.263224 L371.280071,277.31833 L384.695776,276.351601 L411.826247,216.200598 L425.562894,192.397869 L442.826247,180.941492 L462.389071,151.674643 L473.060365,132.89927 L496.620365,143.471154 L540.633071,132.27976 L558.901188,125.589411 L565.542482,129.286372 C565.542482,129.286372 589.999659,93.1921151 590.639718,93.5502982 C591.285247,93.9048264 608.183894,72.9840095 608.183894,72.9840095 L622.130247,41.7142595 L637.652129,17.2207489 L650.296482,0.945347535 M0.744364706,84.325256 L6.60518824,73.7460623 L21.7350118,40.3783827 L45.9496588,33.0630412 L52.3210706,27.6226785 L88.7624824,22.5240518 L113.830541,17.4583194 L118.163247,35.1902102 L135.329953,41.1952595 L148.187659,62.9366081 L164.190953,60.7728898 L189.959247,50.2192806 L222.221129,49.6290095 L229.823424,30.8317067 L265.023012,79.5921222 L313.8006,77.5088123 L326.2626,78.2599004 L332.0286,87.0755905 L321.3336,106.401031 L323.158953,125.37377 L317.095718,136.323939 L324.670659,177.304837 L323.693247,210.449566 L345.796247,247.431971 L371.280071,277.31833" id="Stroke-16" stroke="#B34918" stroke-width="0.316" mask="url(#mask-12)"></path>
            </g>
            <path d="M1227.60805,836.129324 L1253.71906,855.689422 L1270.20869,849.151136 L1302.1701,880.380487 L1339.30091,893.168659 L1375.7143,897.142375 L1413.36223,917 M1175,647.050196 L1193.478,629.83563 L1237.33322,603.175048 L1280.42913,583.952633 L1286.6,572.799945 L1320.66996,559.769006 L1377.74637,541.577895 L1392.93774,514.128776 L1423,477" id="Stroke-19" stroke="#878482" stroke-width="0.316"></path>
            <polyline id="Stroke-21" stroke="#B34918" stroke-width="0.316" points="1362 395 1371.04198 421.278251 1402.10865 453.043049 1439.74866 500.209514 1478.95548 551.598781 1505.83548 573.77077 1581.21569 619.482289 1638.09838 657.172486 1662.34212 667.954381 1672.63937 694.788024 1667.65654 703.770812 1680.55908 729.943447 1696.92137 741.816096 1735.41584 794.487317 1777.36277 817.742777 1845.02368 833.998473 1886.44227 835 1914 832.235785"></polyline>
            <g id="Group-25" transform="translate(921.000000, 0.000000)">
                <mask id="mask-14" fill="white">
                    <use xlink:href="#path-13"></use>
                </mask>
                <g id="Clip-24"></g>
                <path d="M-0.00239452628,-16.2592551 L3.68844558,5.45791795 L3.25175707,31.0717786 L6.76901807,51.5705507 L20.7814204,59.3529494 L54.3662383,51.7974002 L79.8275536,49.4191401 L100.854379,45.9249273 L115.020262,30.7443105 L129.071035,5.38474072 L131.904942,-12.1503535 L113.73395,-36.8531576 L107.178141,-50.6104773 L84.7371018,-63.068901 L56.3888917,-50.1458018 L31.3131048,-39.3393541 L-0.00239452628,-16.2592551 Z M89.818402,-32.1844502 L108.72939,-27.826746 L121.278246,-5.12716867 L136.229803,11.4675981 L147.042868,14.2391858 L165.937411,3.47664439 L169.885879,-2.50559433 L159.463824,-20.7486783 L89.818402,-32.1844502 Z M84.0044152,2.48692233 L121.278246,-5.12716867 L84.0044152,2.48692233 Z M28.5248761,-67.748585 L41.6913087,-98.349474 L54.7755196,-103.72983 L52.4787938,-123.136432 L61.3587359,-139.173222 L67.8323232,-158.449935 L28.5248761,-67.748585 Z M235.825844,-249.599495 L230.866963,-243.710557 L235.202786,-225.697982 L235.517056,-186.745741 L233.329959,-147.074534 L231.550316,-128.67046 L230.468644,-91.754376 L214.755167,-63.3853925 L195.204677,-37.9855753 L184.948892,-26.8205591 L167.711573,-23.3190286 L131.904942,-12.1503535 L235.825844,-249.599495 Z M184.948892,-26.8205591 C184.948892,-26.8205591 195.464132,-16.0269174 195.750995,-15.9775227 C196.037857,-15.9208104 210.45954,-14.0236907 210.45954,-14.0236907 L227.431924,-28.3133746 L244.740502,-26.5004087 L272.779924,-13.460226 L306.273384,5.13593813 L323.486951,6.3634862 L356.01385,24.4254565 L375.332292,35.1550682 L184.948892,-26.8205591 Z M167.711573,-23.3190286 L169.631906,-41.2254972 L180.468724,-60.7857714 L200.682468,-63.3286802 L220.616659,-102.846215 L231.137381,-114.503348 L167.711573,-23.3190286 Z M61.3587359,-139.173222 L93.1821825,-119.082413 L118.247007,-114.161244 L134.753467,-101.900399 L143.414151,-91.1890819 L163.258812,-77.6421468 L180.468724,-60.7857714 L195.204677,-37.9855753 L61.3587359,-139.173222 Z M168.7768,-33.2345435 L154.985483,-38.6057523 L146.944202,-55.5096929 L125.984981,-58.7166851 L107.134289,-71.4476941 L168.7768,-33.2345435 Z M135.561066,-57.2513111 L152.063872,-69.8103535 L163.258812,-77.6421468 L135.561066,-57.2513111 Z M225.946452,-83.5859674 L256.896521,-82.7005229 L270.422902,-75.1907095 L277.183352,-58.5136183 L265.275825,-34.4913625 L249.01603,-24.5154763 L225.946452,-83.5859674 Z M54.7755196,-103.72983 L63.6408444,-97.1822972 L64.1414831,-82.3748843 L78.3091931,-74.5065024 L94.8777763,-71.9837173 L104.912476,-66.4094417 L54.7755196,-103.72983 Z M36.726946,-52.070363 L47.463271,-64.9385793 L66.1750995,-73.3777436 L71.6528909,-78.203782 L36.726946,-52.070363 Z M41.166917,-43.5872924 L44.5306975,-21.324949 L58.1721887,-8.13109404 L41.166917,-43.5872924 Z M63.1146256,-12.1265709 L71.0846477,-17.2599537 L80.5839931,-8.6927293 L85.3784309,6.97817495 L79.513284,13.0006611 L64.4849871,15.0459648 L54.8814942,5.78355663 L51.632824,-0.515173615 L58.1721887,-8.13109404 L63.1146256,-12.1265709 Z M29.999385,12.6073335 L30.3355803,-1.10059147 L44.5306975,-21.324949 L29.999385,12.6073335 Z M111.25999,34.7727171 L142.442108,49.9021098 L180.457761,65.3919004 L206.432505,77.2868595 L242.895082,79.3705812 L111.25999,34.7727171 Z M210.45954,-14.0236907 L215.274077,1.54110661 L222.13502,6.89402113 L236.953195,3.45469122 L254.013281,10.1577257 L269.355847,22.0142667 L210.45954,-14.0236907 Z M446.983923,-174.653203 L438.389016,-164.035187 L438.467583,-155.563093 L443.674957,-141.147178 L438.89879,-121.879613 L434.307166,-96.8840999 L415.182402,-68.4437687 L412.045188,-56.698823 L398.248389,-47.496786 L381.656053,-39.8497653 L376.591197,-33.7449547 L345.971841,-25.0954059 L317.693063,-19.1570735 L307.426315,-7.71398382 L294.945063,14.8081388 L279.143882,19.0158296 L269.355847,22.0142667 L249.832765,46.5835224 L252.273835,58.8992505 L264.468225,74.3835528 L273.41029,87.6322907 L293.172729,102.121383 L313.810372,120.605951 L337.837376,139.564343 L366.390226,155.41819 L374.548445,163.670753 L446.983923,-174.653203 Z M191.022334,70.2289155 L210.614848,72.7846303 L235.372711,68.6245047 L244.718576,63.4124563 L242.924316,51.4552966 L249.832765,46.5835224 L191.022334,70.2289155 Z M260.596497,69.4660428 L249.251732,70.4301529 L242.895082,79.3705812 L258.592115,93.599894 L269.180441,95.264676 L260.596497,69.4660428 Z M273.41029,87.6322907 L269.180441,95.264676 L278.646898,130.870888 L299.958759,156.750016 L290.664054,160.864406 L286.903782,171.703783 L293.956576,199.507472 L299.958759,223.635835 L306.721036,245.38045 L321.277928,259.640863 L339.620673,272.637139 L342.918676,280.368314 L344.839009,299.699909 L346.4469,316.051362 L273.41029,87.6322907 Z M310.093952,248.680743 L298.434917,259.320713 L292.222612,278.635843 L291.966811,287.208556 L285.180781,299.456595 L291.321828,320.293812 L291.862664,341.103587 L276.282568,361.121219 L265.562687,372.871653 L261.000297,379.161236 L310.093952,248.680743 Z M285.180781,299.456595 L265.279479,310.04534 L236.819813,327.968274 L219.820023,341.954272 L285.180781,299.456595 Z M145.928307,102.635453 L130.82327,110.897162 L121.625404,120.408373 L122.902581,134.323024 L117.185433,144.633696 L121.002347,165.86424 L119.407246,186.617303 L113.076176,198.418961 L145.928307,102.635453 Z M119.407246,186.617303 L126.785272,197.740242 L135.804077,202.749224 L137.625744,219.21776 L148.036837,240.451963 L156.509325,255.553915 L160.57473,273.548196 L169.986373,290.011244 L190.797595,317.308181 L198.457002,330.834992 L238.984984,351.930159 L250.892511,366.413762 L254.190514,374.143107 L275.924447,390.143309 L306.476198,402.894442 L119.407246,186.617303 Z" id="Stroke-23" stroke="#878482" stroke-width="0.316" mask="url(#mask-14)"></path>
            </g>
            <polyline id="Stroke-26" stroke="#B34918" stroke-width="0.316" points="1291.366 326.549397 1276.98376 320.941976 1266.85377 317 1252.18939 329.318448 1241.54788 339.938618 1242.82391 363.906054 1241.10191 381.164286 1227 403.601265 1228.00663 420.978066 1231.89662 437.707296 1237.8563 459.795863 1239.19787 474.551369 1253.50365 490.651269 1260.61922 514.190031 1278.10507 538.197598 1283.94279 552.925741 1292.71484 583.582315 1321.49205 602.363708 1351.5726 616.269162 1372.16207 624.061908 1377.97248 639.340943 1390.45796 644.590831 1395.65857 666.535291 1400 688"></polyline>
            <g id="Group-30" transform="translate(1058.000000, 151.000000)">
                <mask id="mask-16" fill="white">
                    <use xlink:href="#path-15"></use>
                </mask>
                <g id="Clip-29"></g>
                <path d="M155.953929,136.108611 L175.240883,148.772439 L193.148506,155.348659 L209.053638,152.555543 M155.848247,189.819574 L169.661605,189.642725 L177.383675,188.326387 L184.969088,187.775786 M0.264387062,51.9450279 L15.5937348,47.0114955 L27.4465111,31.1844464 L33.7236539,19.8533658 L30.9704571,7.65809666 L34.6620367,0.746411002 M27.4465111,31.1844464 L38.7654113,40.5464896 L55.5415084,60.7783481 L67.5910717,63.2688157 L75.4188237,45.1044464 L82.3136593,39.2356212 L90.9941553,27.5234955 M222.200107,434.147936 L224.138824,457.904006 L230.335794,477.02737 L244.398781,499.111582 L254.046813,527.150309 L257.649109,542.86979 L259.203363,560.257484 L276.44774,572.066238 L292.518684,606.185279 L300.373767,619.786222 L327.339061,634.754552 L348.220355,651.101209 L353.198339,665.345735 L352.917735,674.434301 L360.067665,694.361688 L356.740506,700.358136 L360.34098,718.599079 L360.831126,737.91023 L351.573023,754.61423 L357.032042,773.044784 L373.135783,790.942969 L403.357174,804.075354 L434.724667,823.721971 L459.102576,835.290065 L491.576085,850.920211 L509.350694,866.224006 L526.165056,875.868643 L536.778802,891.5626 L554.183525,899.54267 L578.020268,897.930977 L589.091363,915.834631 L616.173271,930.587826 L622.822123,946.872494 L633.853131,955.239079 L663.892312,975.270387 L674.963406,981.410867 M298.511578,616.573774 L306.370306,602.393059 L320.719363,589.63625 L334.08084,558.96667 L350.042457,539.258065 L363.954209,546.979244 L379.662554,574.18113 L407.15808,592.237932 L418.251039,619.680478 L434.664538,635.50935 L457.82346,647.243354 L484.409756,655.834191 L489.405961,667.010301 L506.715934,667.092344 L519.747611,674.88645 L529.481282,657.321908 L543.932376,657.504226 L558.175751,631.806466 L585.363341,616.088808 L604.028958,589.481279 L628.984473,583.09467" id="Stroke-28" stroke="#878482" stroke-width="0.316" mask="url(#mask-16)"></path>
            </g>
            <polyline id="Stroke-31" stroke="#B34918" stroke-width="0.316" points="1482 778 1497.25402 765.241786 1522.49698 765.241786 1540.60316 751.759378 1567.3059 721.751854 1600.71714 693.791044 1616.63636 696.383183 1647.50344 674.022561 1661.79885 668.436966 1674.53058 654.146453 1700.91257 616.037809 1736.65292 589.928527 1760.74407 578.779227 1772.3076 585.198466 1806.97452 570.121737 1837.60467 576.478954 1865.09472 579.414037 1906.492 554.202244 1955.56549 549.505018 2000.93209 544.426541 2012.24048 536.133884 2017.08277 520.331137 2045.40568 493.466651 2064.68553 452.607166 2069.12687 415.288386 2090.65564 388.568008 2126.91904 365.550687 2148.77403 336.21628 2166.88567 322.735696 2194.43222 273.021711 2211.68549 259.057724 2238.91492 237.195099 2256.48895 205.478332 2256.27936 179.586126 2274.28713 153.157614 2297.57458 131.33877 2310.97698 120.287975 2320 104"></polyline>
            <g id="Group-35" transform="translate(1067.000000, 1.000000)">
                <mask id="mask-18" fill="white">
                    <use xlink:href="#path-17"></use>
                </mask>
                <g id="Clip-34"></g>
                <path d="M1323.85474,125.179178 L1306.0447,157.29321 L1306.88126,199.183615 L1283.13696,241.998073 L1254.09267,260.045357 L1246.20828,275.26945 L1237.90106,295.294245 L1226.26585,316.274076 L1196.88438,326.850565 L1168.39051,378.225727 L1147.29075,400.120499 L1140.12262,419.099127 L1141.8978,439.112986 L1137.68404,465.890475 L1132.17991,481.870943 L1112.51269,506.231679 L1092.59577,520.943624 L1058.96227,569.468255 L1041.24518,599.39518 L1008.65237,638.983654 L979.427644,685.614615 L956.211895,727.468568 L931.789611,747.280119 L918.441193,776.395992 L890.37197,821.958915 L863.337961,859.59175 L849.845561,877.86139 L1323.85474,125.179178 Z M1245.67427,118.765484 L1264.89498,135.586165 L1281.637,138.715552 L1305.79501,137.558208 L1314.35739,142.306054 L1245.67427,118.765484 Z M1107.04683,311.172647 L1088.20522,300.725562 L1065.54535,261.840608 L1052.67627,219.432588 L1044.24694,201.316045 L1032.95436,168.185007 L1014.97118,158.20815 L1006.35048,139.43183 L996.406599,136.158459 L989.459006,124.4629 L976.998174,123.713815 L950.77338,157.870971 L909.107871,148.202132 L866.990368,164.592683 L841.361551,169.413433 L827.588477,194.244397 L761.58999,205.229145 L747.853367,225.206553 L1107.04683,311.172647 Z M0.0959044017,-249.10787 L9.748174,-243.758569 L25.4604505,-240.569037 L0.0959044017,-249.10787 Z M267.416021,-56.5384963 L296.021076,-28.3630801 L344.814611,-16.4141812 L377.483972,-16.7677636 L409.597452,1.04622937 L438.559728,0.306257902 L472.716296,21.4938647 L495.501922,31.8899171 L542.957699,34.1389929 L566.080499,41.9232741 L584.481049,42.0508554 L594.087754,47.9451109 L606.991468,64.0549824 L631.109384,79.111397 L657.71327,112.905858 L657.383387,171.380007 L267.416021,-56.5384963 Z M121.0664,-34.4177235 L141.185622,-25.7786478 L165.866709,-10.8334111 L121.0664,-34.4177235 Z M148.880464,101.660478 L172.929123,77.4856469 L195.66554,54.4080144 L212.502335,51.5647743 L230.224893,49.4432797 L148.880464,101.660478 Z M364.702369,-143.980889 L337.498862,-94.9331737 L305.175787,-52.9516395 L285.944151,-18.2714002 L263.235072,15.5996092 L254.568807,31.2301396 L364.702369,-143.980889 Z M377.483972,-16.7677636 L401.762273,-51.4534707 L428.07455,-92.8444857 L431.644942,-106.849266 L429.457871,-122.224634 L377.483972,-16.7677636 Z M438.559728,0.306257902 L459.912823,-38.1923071 L475.728986,-77.8208778 L484.66499,-93.9307493 L438.559728,0.306257902 Z M569.038511,-63.0779486 L548.946627,-37.2172215 L518.138098,-5.89783788 L496.637376,20.7630062 L491.479536,30.0563917 L451.197349,53.2269762 L410.924274,75.3641523 L367.033422,102.001303 L344.62142,116.166471 L308.394426,100.734603 L292.191881,76.4504158 L273.140677,63.3605757 L254.382906,54.9201622 L261.984797,41.2197544 L270.765884,34.3303649 L297.661379,40.8479461 L313.66162,35.7319364 L329.421283,61.9116168 L569.038511,-63.0779486 Z M537.431702,153.123125 L572.067603,155.534411 L599.25653,160.262209 L626.157493,169.302255 L648.706186,167.253664 L687.903951,185.913338 L737.012789,216.230298 L753.413992,229.804947 L786.247383,274.332639 L818.823793,276.160697 L842.943532,288.700115 L877.209453,316.246737 L912.95347,338.8669 L953.485347,363.449991 L970.617397,381.767019 L991.035519,407.788134 L1027.96238,428.272221 L1062.79147,451.785453 L1098.60656,467.454257 L1121.37032,477.137677 L1132.17991,481.870943 L537.431702,153.123125 Z M1140.68033,446.86446 L1127.87685,449.257521 L1114.72163,459.597073 L1096.73297,492.024591 L1089.25684,505.511756 L1090.97187,511.506254 L1095.42802,518.849468 L1140.68033,446.86446 Z M1101.58645,321.016455 L1103.54934,340.441617 L1098.31496,371.833904 L1104.04872,394.049452 L1117.21671,405.132621 L1127.80577,432.976326 L1141.8978,439.112986 L1101.58645,321.016455 Z M956.211895,727.468568 L967.615643,724.834925 L989.750616,714.438873 L1014.44264,726.453385 L1032.28184,738.447849 L1050.37985,763.041876 L1064.20213,783.86132 L1054.40588,801.524038 L1060.08679,814.752395 L1052.06024,832.243789 L1046.19161,839.796602 L956.211895,727.468568 Z M1051.66839,764.981112 L1062.22465,764.711368 L1080.70175,770.760544 L1095.35512,766.293376 L1104.45698,767.98474 L1129.9327,738.025008 L1143.64927,713.299754 L1127.97527,695.367293 L1116.09766,688.778631 L1101.70309,656.436774 L1080.82933,644.863329 L1060.76478,610.638737 L1050.03174,584.546541 L987.536207,554.913053 L946.944185,534.215723 L917.17816,520.506202 L891.600375,507.578572 L877.748931,493.181935 L847.966503,486.318062 L814.003126,469.579397 L800.126166,467.343079 L779.157631,469.568462 L760.850031,459.414814 L752.145492,451.646936 L739.695595,450.62264 L725.927988,445.922181 L716.011448,443.361442 L707.90653,436.767312 L664.897796,435.588097 L640.690574,431.538302 L625.920561,423.345761 L583.004776,428.795304 L570.095595,430.873057 L559.440918,445.537615 L548.715162,454.286046 L533.449412,457.57582 L525.973277,471.061163 L520.629536,480.699018 L499.023105,493.909149 L486.819254,487.143695 L462.606565,488.404927 L449.874171,478.550184 L444.966021,462.666314 L430.301716,452.016922 L415.981874,421.809318 L411.833731,411.121651 L393.26186,389.343525 L373.474343,365.206968 L364.197521,357.708833 L366.698071,328.977527 L365.502472,306.902319 L351.612754,281.983871 L328.056186,260.100035 L317.742328,247.660859 L297.513752,236.439174 L281.559075,217.515224 L253.03239,184.149072 L245.016778,175.130897 L245.804123,162.609705 L236.868119,150.454853 L232.543188,106.772843 L230.881014,73.9388871 L232.300787,62.545878 L229.408387,44.2871731 L230.808112,34.9536906 L244.477301,31.5108184 L261.148243,31.0497032 L294.240437,51.5538388 L313.36272,57.960242 L361.022624,69.6958979 L396.677335,75.0561346 L421.662789,85.2753958 L465.657528,109.676228 L484.974825,114.965384 L501.671283,124.227786 L514.436482,148.909297 L522.743704,158.410458 L1051.66839,764.981112 Z M1008.58129,723.601032 L1005.83287,707.403676 L987.530739,697.250028 L971.052988,700.709304 L1008.58129,723.601032 Z M206.320217,269.240323 L241.103745,258.900771 L256.404123,256.052063 L272.756118,252.312109 L290.312823,247.143244 L304.674584,230.333498 L319.803642,212.904071 L332.182459,207.239462 L332.822177,191.929708 L206.320217,269.240323 Z M245.016778,175.130897 C245.016778,175.130897 233.155567,177.092004 232.891296,176.805857 C232.630671,176.51971 227.893841,165.633381 227.893841,165.633381 L234.256393,157.690535 L241.903848,157.304146 L245.016778,175.130897 Z M245.804123,162.609705 L278.203745,162.746399 L314.166468,182.691 L329.115093,191.823997 L347.993153,192.358016 L374.642603,182.922469 L382.56891,177.153972 L245.804123,162.609705 Z M344.62142,116.166471 L358.742603,139.674234 L373.594632,163.865469 L376.426888,171.875752 L388.370113,182.140578 L405.068394,191.401156 L414.489199,196.628344 L423.782424,222.77704 L439.226785,239.348027 L450.976819,247.937893 L457.477885,258.304784 L344.62142,116.166471 Z M399.5588,188.342851 L403.366124,207.60398 L389.472761,232.648187 L385.692775,249.308481 L381.220217,264.184459 L376.538064,284.161866 L399.5588,188.342851 Z M351.612754,281.983871 L365.02314,281.653982 L372.240471,282.643649 L384.355017,286.913977 L394.386379,296.46617 L398.425169,307.778985 L351.612754,281.983871 Z M365.783146,312.027442 L378.82902,308.621021 L390.415024,304.764421 L408.126647,311.4351 L426.682115,317.728503 L439.968566,327.836586 L445.439887,349.771455 L459.169219,367.984595 L480.201544,379.652815 L497.016468,393.557353 L511.372761,408.801494 L525.769151,418.184186 L530.088614,426.039549 L546.571833,435.179837 L558.052129,434.414349 L570.365334,441.239948 L586.600684,457.388094 L602.61186,467.381354 L626.217638,496.994793 L634.173105,512.182434 L658.903401,534.715112 L678.324584,559.76661 L688.361413,569.672385 L699.991159,585.428675 L715.592259,606.887847 L734.147727,626.41872 L743.481049,641.393118 L750.202644,658.414284 L763.053504,674.992561 L771.89109,689.338166 L776.115781,707.850211 L780.865368,719.722561 L789.256427,731.093699 L795.724687,750.84875 L805.331393,766.4647 L829.644323,778.269614 L842.148896,789.403815 L852.881943,803.751243 L867.371283,811.440749 L365.783146,312.027442 Z M301.198965,396.395125 L329.268188,385.248166 L339.206599,375.741537 L345.503539,363.665057 L357.253573,359.586101 L364.197521,357.708833 L301.198965,396.395125 Z M276.115093,251.318797 L294.324274,263.010711 L307.517775,261.935383 L318.948862,257.974895 L322.750719,253.700922 L276.115093,251.318797 Z M856.346627,820.717731 L848.243532,830.783895 L849.300616,846.540184 L858.143669,854.331756 L876.283594,874.60989 L890.884109,876.549126 L909.98999,862.792218 L917.39869,845.905923 L909.796798,818.734754 L897.571076,810.267001 L867.371283,811.440749 L856.346627,820.717731 Z M795.42032,882.680318 L793.464715,866.462913 L793.949515,849.939314 L783.619254,832.652049 L795.42032,882.680318 Z" id="Stroke-33" stroke="#878482" stroke-width="0.316" mask="url(#mask-18)"></path>
            </g>
            <path d="M1282,547.398411 L1259.57578,549.288632 L1226.1202,530.670775 L1210.62033,509.865584 L1223.40822,486.741819 L1239.20054,473.688904 M1132.07472,1034 L1121.55014,1027.29947 L1120.26409,999.70625 L1119.88081,981.855783 L1104.79692,972.410146 L1092.31783,942.359824 L1088.07821,936.01291 L1077.55726,909.996396 L1068.23518,876.881984 L1057.49445,848.224264 L1030.87057,827.105555 L1035.9058,808.906937 L1024.7382,776.862496 L1018.73479,740.76055 L1012.78951,703.431874 L997.90906,677.72341 L982.053168,648.106909 L971.608515,623.831148 L971,614.657105 L978.027889,588.74449 L982.501834,558.688699 L971.982706,538.341025 L984.74698,511.843298 L1000.94618,495.028169 L1010.18107,476.437653 L1028.97055,450.772936 L1043.11534,418.744899 L1053.36018,397.564216 L1069.21244,371.531297 L1092.97175,358.081016 L1096.265,340.383662 L1119.66102,331" id="Stroke-36" stroke="#B34918" stroke-width="0.316"></path>
            <g id="Group-40" transform="translate(741.000000, 52.000000)">
                <mask id="mask-20" fill="white">
                    <use xlink:href="#path-19"></use>
                </mask>
                <g id="Clip-39"></g>
                <path d="M139.372083,651.213579 L162.510338,646.060249 L172.747827,646.91002 L188.871506,644.719946 L204.377218,655.006546 L226.831881,656.545616 L243.136029,663.489664 L253.120133,683.736451 L278.137813,691.140031 M128.903084,633.034688 L145.664784,609.410702 L160.829611,578.75149 L157.59576,549.647759 L169.77283,534.463125 L145.748638,519.125313 L97.7312438,492.487011 L81.1171998,473.60241 L59.2258181,462.424097 M0.0685925552,387.534874 L17.3589378,373.110656 L37.8284462,367.238851 L58.3544649,362.036286 M187.746768,0.130666218 L181.102244,19.6899779 L170.835589,30.63123 L158.713207,56.2829956 L175.97074,76.9200206 L185.64677,108.197413 L186.545467,117.936951 L195.875144,121.42174 M229.106878,109.344421 L239.911293,89.8525806 L237.091244,66.1611227 L237.009213,55.1906939 L227.557401,42.9492563 L217.110277,61.7955631 L197.659778,63.0465129 L175.97074,76.9200206 M181.102244,19.6899779 L191.288691,37.6682786 M222.571729,51.9447891 L213.154552,46.7203412 M298.667477,20.2279228 L290.41332,30.0677555 L296.640396,52.1599671 L308.370852,62.4520382 M160.421278,734.485625 L214.162624,751.435448 L249.224564,763.893887 L273.480266,776.020442 L289.835456,774.685609 L322.026305,774.966434 L357.512985,772.249357 L383.839518,762.610114 L396.56893,763.678709 L398.679866,747.852188 L404.926994,735.990047 L424.62541,719.167872 M280.064634,937.515146 L300.860444,937.856148 L338.507277,944.178369 L372.869217,942.799771 L386.683264,940.100929 L415.705888,950.881709 L419.617863,969.578485 L425.166815,980.780504 L429.838945,999.61587 L438.258988,996.043551 L468.665204,1012.91131 L505.664902,1022.92621 L529.282584,1029.3086 L557.638021,1042.79552 L601.891097,1040.74586 L645.577246,1041.73787 L662.415508,1047.71908 L701.312861,1040.17874 L726.301374,1032.47245 L752.739105,1026.70094 L767.882057,1013.53132 L788.781773,975.835058 L814.718203,968.938422 L825.816107,955.49527 L852.910087,936.920671 L874.996521,897.078102 L903.687374,879.67057 L921.154542,860.791439 L916.283714,833.720958 L908.722264,805.443292 L913.766269,774.630902 L919.677981,756.904251 L928.774325,741.509909 L949.708677,723.433137 L966.475845,704.300534 M1225.41905,280.162896 L1209.84771,298.81226 L1195.00736,325.574563 L1180.71024,317.642155 L1154.81574,327.221221 L1110.87803,332.248727 L1080.25124,356.430717 L1060.89006,363.32553 L1032.47812,385.793391 M1456.79978,430.920585 L1540.20359,471.877339 L1580.02516,493.971374 L1623.74959,502.970554 L1666.11777,502.804612 L1675.75005,508.15306 L1708.9271,508.918948 L1740.18097,523.740698 L1761.96845,534.428477 L1773.09916,552.228071 L1791.94992,561.145191 L1818.24911,589.462975 L1863.31338,622.308614 L1899.76256,648.972446 L1901.45423,658.031802 L1903.73469,686.745295 L1913.59302,709.864161 L1930.5206,734.37986 L1942.9146,746.128941 M1980.57601,329.994829 L1961.83645,345.163051 L1935.3258,350.263498 L1913.45083,381.389537 L1889.43028,420.161687 L1852.27564,435.672736 L1841.6845,441.141538 L1832.28373,461.134853 L1810.46344,471.711397 L1806.87595,481.204756 L1814.98245,512.028087 L1806.96527,522.703102 L1813.75927,544.538194 L1805.52152,575.753587 L1790.21815,595.331134 L1791.28274,608.560931 L1802.59574,644.213001 L1809.30589,656.341379 L1787.82284,689.786963 L1767.15281,719.492463 L1780.39994,736.507933 L1793.28247,746.597591 L1789.27024,771.25735 L1774.54291,777.371686 L1756.90986,759.180031 L1738.63878,748.205955 L1723.68177,782.756606 L1715.25261,818.414146 L1713.09246,841.999839 L1698.47815,853.216446 M1789.27024,771.25735 L1808.82647,786.730104 L1823.67775,803.369925 L1844.76523,815.073417 L1862.9324,832.294948 L1875.39749,848.449707 L1917.46671,871.792868 L1932.88492,884.130954 L1956.29844,905.528396 L1992.40673,922.20104 L2002.12104,933.468706 L1995.20673,943.423422 M1834.16863,809.192494 L1832.03582,820.613338 L1826.33921,829.003455 L1825.60093,848.128764 L1816.06708,865.317471 L1804.40225,886.361145 L1792.4731,911.668262 M2079.7608,1288.4011 L2069.16966,1282.53112 L2050.94234,1279.42745 L2033.68845,1244.64703 L2018.8718,1222.13905 L1994.83667,1176.87509 L1951.80131,1152.99581 L1939.987,1121.65824 L1930.6318,1100.28815 L1908.56177,1070.40212 L1900.2748,1048.99921 L1895.89981,1016.74075 L1892.89747,985.040298 L1884.82925,952.623192 L1882.85685,931.258573 L1879.75607,909.897602 L1873.75504,876.032603 L1867.29098,860.351966 M1825.60093,848.128764 L1840.99544,857.859184 L1863.74177,865.304706 L1884.10737,836.901215 L1897.33809,818.476147 L1919.80915,790.054421 L1938.00367,754.212703 L1957.33385,722.370012 L1968.2604,702.664817 L1989.96038,684.733928 L2033.75043,665.342382 L2053.58192,629.573606 L2069.72565,600.440698 L2095.36495,572.374563 L2126.0683,572.044502 L2158.81696,577.611776 L2179.68933,568.745715 L2212.17185,536.919436 M1928.99482,696.056301 L1939.31981,700.328859 L1947.7672,712.862064 L1954.93125,726.327098 L1978.30648,754.732412 M2457.3885,1004.58685 L2451.24528,994.460716 L2450.41768,966.27058 L2452.30804,951.636656 L2454.22028,932.533229 L2454.25309,911.265259 L2470.40411,912.941094 L2480.70723,923.138341 L2475.50645,937.062908 L2471.55619,946.758681 M2511.04235,949.216815 L2502.38533,946.654739 L2481.48379,951.018475 L2465.87964,944.322428 L2445.40831,941.360996 L2433.5466,952.149071 L2432.41639,965.758165" id="Stroke-38" stroke="#878482" stroke-width="0.316" mask="url(#mask-20)"></path>
            </g>
        </g>
    </g>
</svg>