<?xml version="1.0" encoding="UTF-8"?>
<svg width="37px" height="37px" viewBox="0 0 37 37" version="1.1" xmlns="http://www.w3.org/2000/svg" xmlns:xlink="http://www.w3.org/1999/xlink">
    <title>Group 3 Copy</title>
    <defs>
        <polygon id="path-1" points="0 0 36.3999994 0 36.3999994 36.3999994 0 36.3999994"></polygon>
    </defs>
    <g id="Page-1" stroke="none" stroke-width="1" fill="none" fill-rule="evenodd">
        <g id="Desktop-HD-Copy" transform="translate(-1290.000000, -2868.000000)">
            <g id="Group-3-Copy" transform="translate(1290.000000, 2868.000000)">
                <mask id="mask-2" fill="white">
                    <use xlink:href="#path-1"></use>
                </mask>
                <g id="Clip-2"></g>
                <path d="M18.3545492,34.6514764 C14.3624206,34.6883884 10.69029,33.2956154 7.81989854,30.955193 C7.40006455,30.612958 7.64144366,29.9331383 8.18320244,29.9331383 L20.9364774,29.9331383 C24.2793092,29.9331383 27.0811089,27.1986006 27.0877937,23.8558874 C27.0917174,21.8738308 26.1439302,20.1091769 24.6766184,18.9936797 C24.4361112,18.8108638 24.4334954,18.447121 24.6740026,18.264305 C26.1395705,17.1514236 27.0877937,15.3906935 27.0877937,13.4125606 C27.0877937,10.2605108 24.669207,7.65908873 21.59522,7.35231246 C21.3311707,7.32600905 21.191662,7.02780682 21.3438137,6.81054936 L23.5849628,3.60981641 C23.903217,3.15539226 24.5004886,2.99219484 25.0051904,3.22238603 C30.6814506,5.81160097 34.6394287,11.5355723 34.6519577,18.1682467 C34.6693649,27.2292637 27.4152032,34.5679158 18.3545492,34.6514764 L18.3545492,34.6514764 Z M6.92370047,27.4048135 L12.1135694,19.9927734 C12.3289359,19.6852706 12.6807594,19.5020186 13.0562704,19.5020186 L20.9983843,19.5020186 C23.4009857,19.5020186 25.3538169,21.4635847 25.3399403,23.8692571 C25.3260604,26.2649021 23.3461995,28.1853419 20.9504282,28.1853419 L7.33001956,28.1853419 C6.9286414,28.1853419 6.69351112,27.7335335 6.92370047,27.4048135 L6.92370047,27.4048135 Z M5.1654549,26.8682821 C4.92945268,27.2054308 4.42373365,27.1945316 4.20691388,26.8447398 C2.95685781,24.8286777 2.13055941,22.523714 1.85241394,20.0552622 C1.81928063,19.7599664 2.05252173,19.5020186 2.349559,19.5020186 L9.4392167,19.5020186 C9.81167586,19.5020186 10.0299488,19.9212747 9.81632615,20.2263071 L5.1654549,26.8682821 Z M13.2771591,2.50013211 C13.7533779,2.3504497 14.2718852,2.53123117 14.558314,2.94031463 L17.1200425,6.59881415 C17.3336652,6.90399187 17.1153922,7.32324792 16.7429331,7.32324792 L15.0635971,7.32324792 C14.9884658,7.32324792 14.9181302,7.35986924 14.8749697,7.4216314 L13.9754292,8.70904539 C13.8689085,8.86163425 13.978045,9.07104429 14.1640566,9.07104429 L16.7429331,9.07104429 C17.1155375,9.07104429 17.3338105,9.49030035 17.1200425,9.79533274 L11.5472513,17.7542222 L2.27631694,17.7542222 C1.98988814,17.7542222 1.76042539,17.5132772 1.77713737,17.2272821 C2.18331114,10.2964055 6.89899581,4.50427776 13.2771591,2.50013211 L13.2771591,2.50013211 Z M20.9983843,9.07104429 C23.4009857,9.07104429 25.3538169,11.0326104 25.3399403,13.4381374 C25.3260604,15.8337825 23.3463448,17.7542222 20.9505735,17.7542222 L14.7863236,17.7542222 C14.3208586,17.7542222 14.0479447,17.2300432 14.3150457,16.8487164 L19.4172857,9.56179912 C19.6327976,9.25415092 19.9846211,9.07104429 20.360132,9.07104429 L20.9983843,9.07104429 Z M16.8060026,1.80650675 C17.2655094,1.76770559 17.7303931,1.7479417 18.2000724,1.7479417 C19.3858963,1.7479417 20.5428012,1.87422714 21.6581442,2.11386431 C22.0048815,2.18826954 22.163282,2.592848 21.9598318,2.88349345 L19.7124338,6.0932364 C19.5147965,6.37516248 19.0971423,6.37516248 18.8996503,6.0932364 L16.4435706,2.58543654 C16.2247164,2.27284737 16.4258414,1.8387684 16.8060026,1.80650675 L16.8060026,1.80650675 Z M18.2000724,0 C8.16460128,0 0,8.16466648 0,18.2000724 C0,28.2357689 8.16460128,36.3999994 18.2000724,36.3999994 C28.2353981,36.3999994 36.3999994,28.2357689 36.3999994,18.2000724 C36.3999994,8.16466648 28.2353981,0 18.2000724,0 L18.2000724,0 Z" id="Fill-1" fill="#FFFFFF" mask="url(#mask-2)"></path>
            </g>
        </g>
    </g>
</svg>