<?xml version="1.0" encoding="UTF-8"?>
<svg width="251px" height="251px" viewBox="0 0 251 251" version="1.1" xmlns="http://www.w3.org/2000/svg" xmlns:xlink="http://www.w3.org/1999/xlink">
    <title>Group 3</title>
    <defs>
        <filter id="filter-1">
            <feColorMatrix in="SourceGraphic" type="matrix" values="0 0 0 0 0.737255 0 0 0 0 0.345098 0 0 0 0 0.215686 0 0 0 1.000000 0"></feColorMatrix>
        </filter>
        <polygon id="path-2" points="0 0 250.478 0 250.478 250.4765 0 250.4765"></polygon>
    </defs>
    <g id="Page-1" stroke="none" stroke-width="1" fill="none" fill-rule="evenodd">
        <g id="Group-3" transform="translate(-594.000000, -237.000000)" filter="url(#filter-1)">
            <g transform="translate(594.000000, 237.000000)">
                <mask id="mask-3" fill="white">
                    <use xlink:href="#path-2"></use>
                </mask>
                <g id="Clip-2"></g>
                <path d="M126.3023,238.4445 C98.8313,238.6985 73.5623,229.1145 53.8103,213.0095 C50.9213,210.6545 52.5823,205.9765 56.3103,205.9765 L144.0693,205.9765 C167.0723,205.9765 186.3523,187.1595 186.3983,164.1575 C186.4253,150.5185 179.9033,138.3755 169.8063,130.6995 C168.1513,129.4415 168.1333,126.9385 169.7883,125.6805 C179.8733,118.0225 186.3983,105.9065 186.3983,92.2945 C186.3983,70.6045 169.7553,52.7035 148.6023,50.5925 C146.7853,50.4115 145.8253,48.3595 146.8723,46.8645 L162.2943,24.8395 C164.4843,21.7125 168.5943,20.5895 172.0673,22.1735 C211.1273,39.9905 238.3633,79.3785 238.449516,125.0195 C238.5693,187.3705 188.6513,237.8695 126.3023,238.4445 L126.3023,238.4445 Z M47.6433,188.5785 L83.3563,137.5745 C84.8383,135.4585 87.2593,134.1975 89.8433,134.1975 L144.4953,134.1975 C161.0283,134.1975 174.4663,147.6955 174.370811,164.2495 C174.2753,180.7345 160.6513,193.9495 144.1653,193.9495 L50.4393,193.9495 C47.6773,193.9495 46.0593,190.8405 47.6433,188.5785 L47.6433,188.5785 Z M35.5443,184.8865 C33.9203,187.2065 30.4403,187.1315 28.9483,184.7245 C20.3463,170.8515 14.6603,154.9905 12.7463,138.0045 C12.5183,135.9725 14.1233,134.1975 16.1673,134.1975 L64.9533,134.1975 C67.5163,134.1975 69.0183,137.0825 67.5483,139.1815 L35.5443,184.8865 Z M91.3633,17.2035 C94.6403,16.1735 98.2083,17.4175 100.1793,20.2325 L117.8073,45.4075 C119.2773,47.5075 117.7753,50.3925 115.2123,50.3925 L103.6563,50.3925 C103.1393,50.3925 102.6553,50.6445 102.3583,51.0695 L96.1683,59.9285 C95.4353,60.9785 96.1863,62.4195 97.4663,62.4195 L115.2123,62.4195 C117.7763,62.4195 119.2783,65.3045 117.8073,67.4035 L79.4593,122.1705 L15.6633,122.1705 C13.6923,122.1705 12.1133,120.5125 12.2283,118.5445 C15.0233,70.8515 47.4733,30.9945 91.3633,17.2035 L91.3633,17.2035 Z M144.4953,62.4195 C161.0283,62.4195 174.4663,75.9175 174.370811,92.4705 C174.2753,108.9555 160.6523,122.1705 144.1663,122.1705 L101.7483,122.1705 C98.5453,122.1705 96.6673,118.5635 98.5053,115.9395 L133.6153,65.7965 C135.0983,63.6795 137.5193,62.4195 140.1033,62.4195 L144.4953,62.4195 Z M115.6463,12.4305 C118.8083,12.1635 122.0073,12.0275 125.2393,12.0275 C133.3993,12.0275 141.3603,12.8965 149.0353,14.5455 C151.4213,15.0575 152.5113,17.8415 151.1113,19.8415 L135.6463,41.9285 C134.2863,43.8685 131.4123,43.8685 130.0533,41.9285 L113.1523,17.7905 C111.6463,15.6395 113.0303,12.6525 115.6463,12.4305 L115.6463,12.4305 Z M125.2393,-0.0005 C56.1823,-0.0005 -0.0007,56.1825 -0.0007,125.2385 C-0.0007,194.2965 56.1823,250.4765 125.2393,250.4765 C194.2953,250.4765 250.4783,194.2965 250.4783,125.2385 C250.4783,56.1825 194.2953,-0.0005 125.2393,-0.0005 L125.2393,-0.0005 Z" id="Fill-1" fill="#B34918" mask="url(#mask-3)"></path>
            </g>
        </g>
    </g>
</svg>