<?xml version="1.0" encoding="utf-8"?>
<!-- Generator: Adobe Illustrator 24.0.2, SVG Export Plug-In . SVG Version: 6.00 Build 0)  -->
<svg version="1.1" id="Capa_1" xmlns="http://www.w3.org/2000/svg" xmlns:xlink="http://www.w3.org/1999/xlink" x="0px" y="0px"
	 viewBox="0 0 633 94" style="enable-background:new 0 0 633 94;" xml:space="preserve">
<style type="text/css">
	.st0{fill-rule:evenodd;clip-rule:evenodd;fill:#FFFFFF;}
	.st1{filter:url(#Adobe_OpacityMaskFilter);}
	.st2{mask:url(#mask-2_1_);fill-rule:evenodd;clip-rule:evenodd;fill:#FFFFFF;}
	.st3{filter:url(#Adobe_OpacityMaskFilter_1_);}
	.st4{mask:url(#mask-2_2_);fill-rule:evenodd;clip-rule:evenodd;fill:#FFFFFF;}
	.st5{filter:url(#Adobe_OpacityMaskFilter_2_);}
	.st6{mask:url(#mask-2_3_);fill-rule:evenodd;clip-rule:evenodd;fill:#FFFFFF;}
</style>
<title>Group 27</title>
<g id="Page-1">
	<g id="Desktop-HD-Copy" transform="translate(-416.000000, -1953.000000)">
		<g id="Group-27" transform="translate(416.000000, 1953.000000)">
			<polygon id="Fill-1" class="st0" points="0,24.4 0,29.5 10.9,29.5 10.9,68.8 16.2,68.8 16.2,29.5 27.1,29.5 27.1,24.4 			"/>
			<g id="Group-26" transform="translate(0.000000, 0.031200)">
				<path id="Fill-2" class="st0" d="M49.1,48.8h10.5c4.9,0,9.2-3.6,9.2-9.7s-4.3-9.7-9.2-9.7H49.1V48.8z M58.9,53.9h-9.8v14.9h-5.3
					V24.4h15.8c7.6,0,14.5,5.6,14.5,14.8c0,7.2-4.2,12.1-9.7,14l10,15.6h-6.1L58.9,53.9z"/>
				<path id="Fill-4" class="st0" d="M116.6,52.8l-7.7-21.4l-7.7,21.4H116.6z M118.5,57.8H99.4l-3.9,10.9h-5.6l16-44.4h6.1l16,44.4
					h-5.6L118.5,57.8z"/>
				<polygon id="Fill-6" class="st0" points="172.2,24.4 156.6,68.8 150.4,68.8 134.8,24.4 140.4,24.4 153.5,62.3 166.6,24.4 				
					"/>
				<polygon id="Fill-8" class="st0" points="194.3,29.5 194.3,43.3 208.5,43.3 208.5,48.3 194.3,48.3 194.3,63.7 212.7,63.7 
					212.7,68.8 189,68.8 189,24.4 212.7,24.4 212.7,29.5 				"/>
				<polygon id="Fill-10" class="st0" points="255.5,63.7 255.5,68.8 232,68.8 232,24.4 237.4,24.4 237.4,63.7 				"/>
				<path id="Fill-12" class="st0" d="M305.1,52.9c0-3.2-2.3-5.4-6.4-5.4h-5.8v10.4h5.6C302.8,57.9,305.1,56.1,305.1,52.9
					L305.1,52.9z M292.8,44.2h5c3.7,0,5.6-1.4,5.6-4.4c0-2.8-1.9-4.4-5.6-4.4h-5V44.2z M308.6,53.1c0,5.2-3.8,8.1-10.1,8.1h-9.1V32
					h8.5c6.1,0,9.1,3.2,9.1,7.6c0.1,2.5-1.2,4.8-3.3,6.1C306.6,46.9,308.5,49.8,308.6,53.1L308.6,53.1z"/>
				<polygon id="Fill-14" class="st0" points="341.1,32 330.6,49 330.6,61.2 327.1,61.2 327.1,49 316.6,32 320.6,32 328.8,45.4 
					337.1,31.9 				"/>
				<path id="Fill-16" class="st0" d="M404.9,46.6c0-10.4-6.6-17.1-15.7-17.1h-9v34.3h9C398.3,63.7,404.9,57,404.9,46.6 M410.3,46.6
					c0,12.4-8.4,22.2-21.1,22.2h-14.3V24.4h14.3C401.8,24.4,410.3,34.1,410.3,46.6"/>
				<polygon id="Fill-18" class="st0" points="432.6,29.5 432.6,43.3 446.8,43.3 446.8,48.3 432.6,48.3 432.6,63.7 451,63.7 
					451,68.8 427.3,68.8 427.3,24.4 451,24.4 451,29.5 				"/>
				<path id="Fill-20" class="st0" d="M470.8,56.4c0.4,5.4,4.6,7.9,8.9,7.9c5.1,0,8.2-2.7,8.2-6.4c0-4.7-4.2-6.9-9.6-9.6
					c-7.8-4.2-12-7.1-12-13.7c0-6.4,5.6-10.9,12.6-10.9c7.3,0,12.3,5.4,12.7,12.1h-5.4c-0.4-4.1-3.3-7.1-7.3-7.1
					c-4,0-7.3,2.4-7.3,6.1c0,4.6,3.5,6.2,8.4,8.6c7.8,4,13.1,7.7,13.1,14.7s-5.9,11.3-13.6,11.3c-8.1,0-13.9-5.6-14.3-13H470.8z"/>
				<g id="Clip-23">
				</g>
				<defs>
					<filter id="Adobe_OpacityMaskFilter" filterUnits="userSpaceOnUse" x="511.3" y="24.4" width="5.4" height="44.4">
						<feColorMatrix  type="matrix" values="1 0 0 0 0  0 1 0 0 0  0 0 1 0 0  0 0 0 1 0"/>
					</filter>
				</defs>
				<mask maskUnits="userSpaceOnUse" x="511.3" y="24.4" width="5.4" height="44.4" id="mask-2_1_">
					<g class="st1">
						<polygon id="path-1_1_" class="st0" points="0,69.4 632,69.4 632,23.8 0,23.8 						"/>
					</g>
				</mask>
				<polygon id="Fill-22" class="st2" points="511.3,68.8 516.7,68.8 516.7,24.4 511.3,24.4 				"/>
				<defs>
					<filter id="Adobe_OpacityMaskFilter_1_" filterUnits="userSpaceOnUse" x="534.7" y="23.8" width="44.1" height="45.6">
						<feColorMatrix  type="matrix" values="1 0 0 0 0  0 1 0 0 0  0 0 1 0 0  0 0 0 1 0"/>
					</filter>
				</defs>
				<mask maskUnits="userSpaceOnUse" x="534.7" y="23.8" width="44.1" height="45.6" id="mask-2_2_">
					<g class="st3">
						<polygon id="path-1_2_" class="st0" points="0,69.4 632,69.4 632,23.8 0,23.8 						"/>
					</g>
				</mask>
				<path id="Fill-24" class="st4" d="M578.8,45c0,14.6-8.9,24.4-22.2,24.4c-12.7,0-21.9-10.4-21.9-22.8s9.2-22.8,22.4-22.8
					c7.8,0,13.6,3.7,17.6,9.2l-4.1,3.1c-2.8-4-7.2-7.3-13.4-7.3c-9.9,0-17.1,7.9-17.1,17.8s6.9,17.8,16.5,17.8
					c8.9,0,15.2-5.9,16.6-14.3h-17.8V45H578.8z"/>
				<defs>
					<filter id="Adobe_OpacityMaskFilter_2_" filterUnits="userSpaceOnUse" x="596.1" y="24.4" width="35.9" height="44.4">
						<feColorMatrix  type="matrix" values="1 0 0 0 0  0 1 0 0 0  0 0 1 0 0  0 0 0 1 0"/>
					</filter>
				</defs>
				<mask maskUnits="userSpaceOnUse" x="596.1" y="24.4" width="35.9" height="44.4" id="mask-2_3_">
					<g class="st5">
						<polygon id="path-1_3_" class="st0" points="0,69.4 632,69.4 632,23.8 0,23.8 						"/>
					</g>
				</mask>
				<polygon id="Fill-25" class="st6" points="632,24.4 632,68.8 626.7,68.8 601.5,33.5 601.5,68.8 596.1,68.8 596.1,24.4 
					601.5,24.4 626.7,59.7 626.7,24.4 				"/>
			</g>
		</g>
	</g>
</g>
</svg>
